<?xml version="1.0" encoding="UTF-8"?>
<!DOCTYPE svg PUBLIC "-//W3C//DTD SVG 1.1//EN" "http://www.w3.org/Graphics/SVG/1.1/DTD/svg11.dtd">
<svg xmlns="http://www.w3.org/2000/svg" version="1.1" width="465px" height="230px" style="shape-rendering:geometricPrecision; text-rendering:geometricPrecision; image-rendering:optimizeQuality; fill-rule:evenodd; clip-rule:evenodd" xmlns:xlink="http://www.w3.org/1999/xlink">
<g><path style="opacity:0.029" fill="#000000" d="M -0.5,-0.5 C 7.5,-0.5 15.5,-0.5 23.5,-0.5C 23.5,0.166667 23.5,0.833333 23.5,1.5C 21.2537,1.93611 19.0871,2.60278 17,3.5C 16.586,3.04265 16.086,2.70931 15.5,2.5C 15.1345,4.42153 14.9678,6.42153 15,8.5C 14.1667,7.5 13.3333,6.5 12.5,5.5C 11.1643,7.17096 9.83097,8.83763 8.5,10.5C 5.65982,10.807 4.82648,12.1403 6,14.5C 4.84098,13.434 4.00764,13.7673 3.5,15.5C 2.22235,15.7822 1.22235,16.4489 0.5,17.5C 0.5,16.8333 0.166667,16.5 -0.5,16.5C -0.5,10.8333 -0.5,5.16667 -0.5,-0.5 Z"/></g>
<g><path style="opacity:0.004" fill="#000000" d="M 145.5,-0.5 C 145.833,-0.5 146.167,-0.5 146.5,-0.5C 146.315,0.170143 145.981,0.170143 145.5,-0.5 Z"/></g>
<g><path style="opacity:0.004" fill="#000000" d="M 267.5,-0.5 C 267.833,-0.5 268.167,-0.5 268.5,-0.5C 268.315,0.170143 267.981,0.170143 267.5,-0.5 Z"/></g>
<g><path style="opacity:0.011" fill="#000000" d="M 270.5,-0.5 C 270.833,-0.5 271.167,-0.5 271.5,-0.5C 271.833,0.833333 272.167,0.833333 272.5,-0.5C 279.833,-0.5 287.167,-0.5 294.5,-0.5C 294.5,0.166667 294.833,0.5 295.5,0.5C 295.082,1.22158 294.416,1.72158 293.5,2C 294.381,2.7083 295.047,3.54163 295.5,4.5C 294.147,6.12842 294.481,7.46175 296.5,8.5C 296.392,10.5138 297.058,12.1805 298.5,13.5C 297.596,14.209 297.263,15.209 297.5,16.5C 296.839,15.2825 296.172,13.9492 295.5,12.5C 295.167,12.6667 294.833,12.8333 294.5,13C 293.167,15.6667 293.167,18.3333 294.5,21C 293.044,21.4226 292.544,22.2559 293,23.5C 294,22.8333 295,22.1667 296,21.5C 296.456,22.7441 295.956,23.5774 294.5,24C 295.5,24.3333 296.5,24.6667 297.5,25C 296.263,25.2321 295.263,25.7321 294.5,26.5C 293.167,26.8333 293.167,27.1667 294.5,27.5C 294.586,28.4959 294.252,29.3292 293.5,30C 294.744,30.4561 295.577,29.9561 296,28.5C 296.5,29 297,29.5 297.5,30C 296.095,31.2692 294.429,31.7692 292.5,31.5C 292.5,32.1667 292.833,32.5 293.5,32.5C 293.5,33.1667 293.167,33.5 292.5,33.5C 291.167,33.8333 291.167,34.1667 292.5,34.5C 292.833,35.1667 293.167,35.8333 293.5,36.5C 294.5,36.8333 295.167,37.5 295.5,38.5C 294.833,38.8333 294.167,39.1667 293.5,39.5C 293.167,38.1667 292.833,38.1667 292.5,39.5C 291.833,39.5 291.5,39.8333 291.5,40.5C 290.167,41.1667 290.167,41.8333 291.5,42.5C 291.833,43.8333 292.167,43.8333 292.5,42.5C 292.597,44.9074 292.93,47.574 293.5,50.5C 293.167,50.5 292.833,50.5 292.5,50.5C 292.214,48.0673 291.548,48.0673 290.5,50.5C 288.167,48.8333 286.167,46.8333 284.5,44.5C 285.833,44.1667 285.833,43.8333 284.5,43.5C 280.5,40.1667 276.833,36.5 273.5,32.5C 273.167,32.5 272.833,32.5 272.5,32.5C 272.167,31.1667 271.833,31.1667 271.5,32.5C 270.5,32.5 269.5,32.5 268.5,32.5C 271.125,31.5595 271.125,30.3928 268.5,29C 269.308,28.6924 269.975,28.1924 270.5,27.5C 269.284,26.9041 267.951,26.7374 266.5,27C 267.88,25.6764 268.214,24.3431 267.5,23C 268.833,22.6667 270.167,22.3333 271.5,22C 269.321,21.5581 268.655,20.5581 269.5,19C 268.5,18.6667 267.5,18.3333 266.5,18C 268.221,17.2607 269.887,16.4274 271.5,15.5C 270.833,15.1667 270.167,14.8333 269.5,14.5C 269.63,12.5774 269.964,10.7441 270.5,9C 269.956,8.28281 269.289,7.78281 268.5,7.5C 268.5,7.16667 268.5,6.83333 268.5,6.5C 269.186,5.15164 270.186,3.98498 271.5,3C 270.833,2.66667 270.167,2.33333 269.5,2C 270.252,1.32924 270.586,0.495904 270.5,-0.5 Z M 270.5,18.5 C 271.289,18.7828 271.956,19.2828 272.5,20C 271.184,20.5281 270.517,20.0281 270.5,18.5 Z M 292.5,31.5 C 290.972,31.4827 290.472,30.816 291,29.5C 291.717,30.0442 292.217,30.7109 292.5,31.5 Z M 292.5,50.5 C 291.833,50.5 291.167,50.5 290.5,50.5C 291.548,48.0673 292.214,48.0673 292.5,50.5 Z"/></g>
<g><path style="opacity:0.004" fill="#000000" d="M 295.5,-0.5 C 295.833,-0.5 296.167,-0.5 296.5,-0.5C 296.5,-0.166667 296.5,0.166667 296.5,0.5C 296.167,0.166667 295.833,-0.166667 295.5,-0.5 Z"/></g>
<g><path style="opacity:0.004" fill="#000000" d="M 298.5,-0.5 C 298.833,-0.5 299.167,-0.5 299.5,-0.5C 299.315,0.170143 298.981,0.170143 298.5,-0.5 Z"/></g>
<g><path style="opacity:0.004" fill="#000000" d="M 416.5,-0.5 C 416.833,-0.5 417.167,-0.5 417.5,-0.5C 417.315,0.170143 416.981,0.170143 416.5,-0.5 Z"/></g>
<g><path style="opacity:0.037" fill="#010100" d="M 420.5,-0.5 C 431.167,-0.5 441.833,-0.5 452.5,-0.5C 452.389,0.117425 452.056,0.617425 451.5,1C 452.793,1.49001 454.127,1.65668 455.5,1.5C 454.205,2.54451 452.872,3.54451 451.5,4.5C 452.833,5.16667 454.167,5.83333 455.5,6.5C 454.995,9.18791 453.662,11.3546 451.5,13C 454.167,13.6667 454.167,14.3333 451.5,15C 451.749,17.2487 453.082,19.2487 455.5,21C 454.451,21.4922 453.451,21.3256 452.5,20.5C 452.264,21.2472 451.93,22.0805 451.5,23C 454.083,22.1388 455.416,23.3055 455.5,26.5C 453.99,27.8361 452.323,29.0027 450.5,30C 451.381,30.7083 452.047,31.5416 452.5,32.5C 444.167,32.5 435.833,32.5 427.5,32.5C 427.5,39.5 427.5,46.5 427.5,53.5C 424.833,53.8333 424.833,54.1667 427.5,54.5C 427.5,61.5 427.5,68.5 427.5,75.5C 427.167,75.5 426.833,75.5 426.5,75.5C 426.672,74.5084 426.338,73.8417 425.5,73.5C 424.841,71.8621 424.174,70.1955 423.5,68.5C 423.957,67.7025 424.624,67.3691 425.5,67.5C 424.803,65.9293 424.47,64.4293 424.5,63C 426.842,61.6081 426.842,60.7748 424.5,60.5C 425.706,59.1196 425.373,57.9529 423.5,57C 425.929,56.5488 426.096,55.7155 424,54.5C 422.092,57.3323 421.259,56.999 421.5,53.5C 423.179,53.7148 424.179,53.0481 424.5,51.5C 425.833,51.1667 425.833,50.8333 424.5,50.5C 424.567,49.0413 424.234,47.7079 423.5,46.5C 424.014,45.3754 424.347,44.2087 424.5,43C 423.736,40.9307 423.236,38.764 423,36.5C 422.023,37.7736 421.189,37.7736 420.5,36.5C 424.029,35.7027 424.195,34.7027 421,33.5C 420.517,32.552 420.351,31.552 420.5,30.5C 421.289,30.2172 421.956,29.7172 422.5,29C 421.636,27.8631 420.636,26.5298 419.5,25C 419.996,23.0036 420.996,21.3369 422.5,20C 419.833,18.6667 419.833,17.3333 422.5,16C 421.12,14.6764 420.786,13.3431 421.5,12C 420.906,11.5357 420.239,11.369 419.5,11.5C 420.263,10.7321 421.263,10.2321 422.5,10C 420.639,8.97174 419.305,7.47174 418.5,5.5C 419.932,5.41536 421.265,4.41536 422.5,2.5C 421.807,1.48224 421.141,0.482236 420.5,-0.5 Z"/></g>
<g><path style="opacity:0.974" fill="#cedd48" d="M 96.5,-0.5 C 96.8333,-0.5 97.1667,-0.5 97.5,-0.5C 98.1667,0.833333 98.8333,0.833333 99.5,-0.5C 99.8333,-0.5 100.167,-0.5 100.5,-0.5C 100.833,0.833333 101.167,0.833333 101.5,-0.5C 105.5,-0.5 109.5,-0.5 113.5,-0.5C 113.833,0.833333 114.167,0.833333 114.5,-0.5C 114.833,-0.5 115.167,-0.5 115.5,-0.5C 115.833,0.833333 116.167,0.833333 116.5,-0.5C 118.167,-0.5 119.833,-0.5 121.5,-0.5C 125.343,3.51018 129.01,7.67684 132.5,12C 131.349,13.8231 130.182,15.6564 129,17.5C 128.501,22.4889 128.334,27.4889 128.5,32.5C 137.947,31.46 147.28,31.6267 156.5,33C 159.667,36.1667 162.833,39.3333 166,42.5C 166.494,44.1341 166.66,45.8008 166.5,47.5C 167.09,48.766 167.59,50.0993 168,51.5C 168.499,45.5092 168.666,39.5092 168.5,33.5C 178.325,32.3417 188.325,32.1751 198.5,33C 202,36.5 205.5,40 209,43.5C 209.175,84.029 209.675,124.529 210.5,165C 201.292,173.533 191.459,181.366 181,188.5C 173.536,184.062 168.869,177.729 167,169.5C 166.333,177.5 166.333,185.5 167,193.5C 168.084,194.665 168.917,195.998 169.5,197.5C 162.136,203.508 154.803,209.508 147.5,215.5C 144.216,217.61 141.049,219.943 138,222.5C 135.013,220.346 132.18,218.013 129.5,215.5C 128.207,213.704 126.707,212.037 125,210.5C 120.765,213.455 116.931,216.122 113.5,218.5C 112.5,218.833 111.833,219.5 111.5,220.5C 108.337,222.395 105.004,224.895 101.5,228C 100.167,228.667 98.8333,228.667 97.5,228C 94.3333,224.833 91.1667,221.667 88,218.5C 87.5702,215.808 87.7369,213.141 88.5,210.5C 89.499,151.669 89.8324,92.669 89.5,33.5C 89.9175,32.7784 90.5842,32.2784 91.5,32C 90.1772,31.1841 89.5106,30.0174 89.5,28.5C 89.824,21.6457 89.4907,14.979 88.5,8.5C 86.686,6.03471 85.3527,3.36804 84.5,0.5C 88.7016,0.816751 92.7016,0.483418 96.5,-0.5 Z"/></g>
<g><path style="opacity:0.004" fill="#000000" d="M 148.5,0.5 C 149.833,1.16667 149.833,1.16667 148.5,0.5 Z"/></g>
<g><path style="opacity:0.004" fill="#000000" d="M 296.5,0.5 C 297.338,0.841711 297.672,1.50838 297.5,2.5C 296.662,2.15829 296.328,1.49162 296.5,0.5 Z"/></g>
<g><path style="opacity:0.004" fill="#000000" d="M 455.5,0.5 C 456.833,1.16667 456.833,1.16667 455.5,0.5 Z"/></g>
<g><path style="opacity:0.004" fill="#000000" d="M 458.5,0.5 C 459.833,1.16667 459.833,1.16667 458.5,0.5 Z"/></g>
<g><path style="opacity:0.004" fill="#000000" d="M 23.5,1.5 C 24.8333,2.16667 24.8333,2.16667 23.5,1.5 Z"/></g>
<g><path style="opacity:0.004" fill="#000000" d="M 26.5,1.5 C 27.8333,2.16667 27.8333,2.16667 26.5,1.5 Z"/></g>
<g><path style="opacity:0.004" fill="#000000" d="M 297.5,2.5 C 298.338,2.84171 298.672,3.50838 298.5,4.5C 297.662,4.15829 297.328,3.49162 297.5,2.5 Z"/></g>
<g><path style="opacity:0.004" fill="#000000" d="M 349.5,2.5 C 350.833,3.16667 350.833,3.16667 349.5,2.5 Z"/></g>
<g><path style="opacity:0.004" fill="#000000" d="M 357.5,2.5 C 358.833,3.16667 358.833,3.16667 357.5,2.5 Z"/></g>
<g><path style="opacity:0.004" fill="#000000" d="M 414.5,2.5 C 415.833,3.16667 415.833,3.16667 414.5,2.5 Z"/></g>
<g><path style="opacity:0.004" fill="#000000" d="M 457.5,2.5 C 458.833,3.16667 458.833,3.16667 457.5,2.5 Z"/></g>
<g><path style="opacity:0.004" fill="#000000" d="M 266.5,3.5 C 267.833,4.16667 267.833,4.16667 266.5,3.5 Z"/></g>
<g><path style="opacity:0.004" fill="#000000" d="M 301.5,3.5 C 302.833,4.16667 302.833,4.16667 301.5,3.5 Z"/></g>
<g><path style="opacity:0.004" fill="#000000" d="M 455.5,3.5 C 456.833,4.16667 456.833,4.16667 455.5,3.5 Z"/></g>
<g><path style="opacity:1" fill="#2c7f2e" d="M 90.5,3.5 C 99.1922,3.16863 107.859,3.50196 116.5,4.5C 116.192,5.30806 115.692,5.97473 115,6.5C 114.5,13.1583 114.334,19.825 114.5,26.5C 107.167,26.5 99.8333,26.5 92.5,26.5C 93.0597,18.5986 92.393,10.9319 90.5,3.5 Z"/></g>
<g><path style="opacity:0.004" fill="#000000" d="M 144.5,4.5 C 145.833,5.16667 145.833,5.16667 144.5,4.5 Z"/></g>
<g><path style="opacity:0.004" fill="#000000" d="M 295.5,4.5 C 296.525,4.89657 296.692,5.56323 296,6.5C 295.536,5.90558 295.369,5.23891 295.5,4.5 Z"/></g>
<g><path style="opacity:0.004" fill="#000000" d="M 298.5,4.5 C 299.833,5.16667 299.833,5.16667 298.5,4.5 Z"/></g>
<g><path style="opacity:0.004" fill="#000000" d="M 301.5,4.5 C 300.833,5.16667 300.833,5.16667 301.5,4.5 Z"/></g>
<g><path style="opacity:0.004" fill="#000000" d="M 336.5,4.5 C 337.833,5.16667 337.833,5.16667 336.5,4.5 Z"/></g>
<g><path style="opacity:0.004" fill="#000000" d="M 268.5,6.5 C 267.833,5.16667 267.833,5.16667 268.5,6.5 Z"/></g>
<g><path style="opacity:0.004" fill="#000000" d="M 346.5,5.5 C 347.833,6.16667 347.833,6.16667 346.5,5.5 Z"/></g>
<g><path style="opacity:0.004" fill="#000000" d="M 154.5,6.5 C 155.833,7.16667 155.833,7.16667 154.5,6.5 Z"/></g>
<g><path style="opacity:0.004" fill="#000000" d="M 302.5,6.5 C 303.833,7.16667 303.833,7.16667 302.5,6.5 Z"/></g>
<g><path style="opacity:0.004" fill="#000000" d="M 414.5,6.5 C 415.833,7.16667 415.833,7.16667 414.5,6.5 Z"/></g>
<g><path style="opacity:0.004" fill="#000000" d="M 11.5,7.5 C 12.8333,8.16667 12.8333,8.16667 11.5,7.5 Z"/></g>
<g><path style="opacity:0.004" fill="#000000" d="M 134.5,7.5 C 135.833,8.16667 135.833,8.16667 134.5,7.5 Z"/></g>
<g><path style="opacity:0.004" fill="#000000" d="M 268.5,7.5 C 267.833,8.16667 267.833,8.16667 268.5,7.5 Z"/></g>
<g><path style="opacity:0.004" fill="#000000" d="M 297.5,8.5 C 296.833,7.16667 296.833,7.16667 297.5,8.5 Z"/></g>
<g><path style="opacity:0.103" fill="#333712" d="M 88.5,8.5 C 89.4907,14.979 89.824,21.6457 89.5,28.5C 89.1667,28.5 88.8333,28.5 88.5,28.5C 88.3611,22.0136 88.3611,15.347 88.5,8.5 Z"/></g>
<g><path style="opacity:0.004" fill="#000000" d="M 140.5,8.5 C 141.833,9.16667 141.833,9.16667 140.5,8.5 Z"/></g>
<g><path style="opacity:0.004" fill="#000000" d="M 265.5,8.5 C 266.833,9.16667 266.833,9.16667 265.5,8.5 Z"/></g>
<g><path style="opacity:0.004" fill="#000000" d="M 297.5,8.5 C 298.833,9.16667 298.833,9.16667 297.5,8.5 Z"/></g>
<g><path style="opacity:0.004" fill="#000000" d="M 455.5,8.5 C 456.833,9.16667 456.833,9.16667 455.5,8.5 Z"/></g>
<g><path style="opacity:0.004" fill="#000000" d="M 147.5,9.5 C 148.833,10.1667 148.833,10.1667 147.5,9.5 Z"/></g>
<g><path style="opacity:0.004" fill="#000000" d="M 267.5,9.5 C 268.833,10.1667 268.833,10.1667 267.5,9.5 Z"/></g>
<g><path style="opacity:0.004" fill="#000000" d="M 346.5,9.5 C 347.833,10.1667 347.833,10.1667 346.5,9.5 Z"/></g>
<g><path style="opacity:0.004" fill="#000000" d="M 8.5,10.5 C 9.83333,11.1667 9.83333,11.1667 8.5,10.5 Z"/></g>
<g><path style="opacity:0.004" fill="#000000" d="M 13.5,10.5 C 14.8333,11.1667 14.8333,11.1667 13.5,10.5 Z"/></g>
<g><path style="opacity:0.004" fill="#000000" d="M 300.5,10.5 C 301.833,11.1667 301.833,11.1667 300.5,10.5 Z"/></g>
<g><path style="opacity:0.004" fill="#000000" d="M 338.5,10.5 C 339.833,11.1667 339.833,11.1667 338.5,10.5 Z"/></g>
<g><path style="opacity:0.004" fill="#000000" d="M 11.5,11.5 C 12.8333,12.1667 12.8333,12.1667 11.5,11.5 Z"/></g>
<g><path style="opacity:0.004" fill="#000000" d="M 149.5,11.5 C 150.833,12.1667 150.833,12.1667 149.5,11.5 Z"/></g>
<g><path style="opacity:0.004" fill="#000000" d="M 305.5,11.5 C 306.833,12.1667 306.833,12.1667 305.5,11.5 Z"/></g>
<g><path style="opacity:0.004" fill="#000000" d="M 419.5,11.5 C 418.833,12.1667 418.833,12.1667 419.5,11.5 Z"/></g>
<g><path style="opacity:0.004" fill="#000000" d="M 246.5,12.5 C 247.833,13.1667 247.833,13.1667 246.5,12.5 Z"/></g>
<g><path style="opacity:0.004" fill="#000000" d="M 298.5,13.5 C 299.833,14.1667 299.833,14.1667 298.5,13.5 Z"/></g>
<g><path style="opacity:0.004" fill="#000000" d="M 301.5,13.5 C 302.833,14.1667 302.833,14.1667 301.5,13.5 Z"/></g>
<g><path style="opacity:0.004" fill="#000000" d="M 9.5,14.5 C 10.8333,15.1667 10.8333,15.1667 9.5,14.5 Z"/></g>
<g><path style="opacity:0.004" fill="#000000" d="M 301.5,14.5 C 300.833,15.1667 300.833,15.1667 301.5,14.5 Z"/></g>
<g><path style="opacity:0.004" fill="#000000" d="M 419.5,14.5 C 420.833,15.1667 420.833,15.1667 419.5,14.5 Z"/></g>
<g><path style="opacity:0.004" fill="#000000" d="M 454.5,14.5 C 455.833,15.1667 455.833,15.1667 454.5,14.5 Z"/></g>
<g><path style="opacity:0.004" fill="#000000" d="M 3.5,15.5 C 4.83333,16.1667 4.83333,16.1667 3.5,15.5 Z"/></g>
<g><path style="opacity:0.004" fill="#000000" d="M 342.5,15.5 C 343.833,16.1667 343.833,16.1667 342.5,15.5 Z"/></g>
<g><path style="opacity:0.004" fill="#000000" d="M 144.5,16.5 C 145.833,17.1667 145.833,17.1667 144.5,16.5 Z"/></g>
<g><path style="opacity:0.004" fill="#000000" d="M 297.5,16.5 C 298.833,17.1667 298.833,17.1667 297.5,16.5 Z"/></g>
<g><path style="opacity:0.004" fill="#000000" d="M 418.5,16.5 C 419.525,16.8966 419.692,17.5632 419,18.5C 418.536,17.9056 418.369,17.2389 418.5,16.5 Z"/></g>
<g><path style="opacity:0.004" fill="#000000" d="M -0.5,17.5 C -0.166667,17.5 0.166667,17.5 0.5,17.5C 0.31468,18.1701 -0.0186536,18.1701 -0.5,17.5 Z"/></g>
<g><path style="opacity:0.004" fill="#000000" d="M 3.5,18.5 C 2.83333,17.1667 2.83333,17.1667 3.5,18.5 Z"/></g>
<g><path style="opacity:0.004" fill="#000000" d="M 299.5,17.5 C 300.833,18.1667 300.833,18.1667 299.5,17.5 Z"/></g>
<g><path style="opacity:0.004" fill="#000000" d="M 307.5,17.5 C 308.833,18.1667 308.833,18.1667 307.5,17.5 Z"/></g>
<g><path style="opacity:0.004" fill="#000000" d="M 311.5,17.5 C 312.833,18.1667 312.833,18.1667 311.5,17.5 Z"/></g>
<g><path style="opacity:0.004" fill="#000000" d="M 352.5,17.5 C 353.833,18.1667 353.833,18.1667 352.5,17.5 Z"/></g>
<g><path style="opacity:0.004" fill="#000000" d="M 3.5,18.5 C 4.83333,19.1667 4.83333,19.1667 3.5,18.5 Z"/></g>
<g><path style="opacity:0.004" fill="#000000" d="M 295.5,19.5 C 296.077,18.2267 296.743,18.2267 297.5,19.5C 297.03,20.463 296.363,20.463 295.5,19.5 Z"/></g>
<g><path style="opacity:0.004" fill="#000000" d="M 299.5,18.5 C 298.833,19.1667 298.833,19.1667 299.5,18.5 Z"/></g>
<g><path style="opacity:0.004" fill="#000000" d="M 352.5,18.5 C 351.833,19.1667 351.833,19.1667 352.5,18.5 Z"/></g>
<g><path style="opacity:0.004" fill="#000000" d="M 455.5,18.5 C 456.833,19.1667 456.833,19.1667 455.5,18.5 Z"/></g>
<g><path style="opacity:0.004" fill="#000000" d="M 264.5,19.5 C 265.833,20.1667 265.833,20.1667 264.5,19.5 Z"/></g>
<g><path style="opacity:0.004" fill="#000000" d="M 130.5,20.5 C 131.833,21.1667 131.833,21.1667 130.5,20.5 Z"/></g>
<g><path style="opacity:0.004" fill="#000000" d="M 266.5,20.5 C 267.833,21.1667 267.833,21.1667 266.5,20.5 Z"/></g>
<g><path style="opacity:0.004" fill="#000000" d="M 348.5,20.5 C 349.833,21.1667 349.833,21.1667 348.5,20.5 Z"/></g>
<g><path style="opacity:0.004" fill="#000000" d="M 416.5,21.5 C 417.251,20.4265 418.251,20.2599 419.5,21C 418.552,21.4828 417.552,21.6495 416.5,21.5 Z"/></g>
<g><path style="opacity:0.004" fill="#000000" d="M 134.5,22.5 C 135.833,23.1667 135.833,23.1667 134.5,22.5 Z"/></g>
<g><path style="opacity:0.004" fill="#000000" d="M 264.5,23.5 C 264.897,22.475 265.563,22.3083 266.5,23C 265.906,23.4643 265.239,23.631 264.5,23.5 Z"/></g>
<g><path style="opacity:0.004" fill="#000000" d="M 298.5,23.5 C 298.897,22.475 299.563,22.3083 300.5,23C 299.906,23.4643 299.239,23.631 298.5,23.5 Z"/></g>
<g><path style="opacity:0.004" fill="#000000" d="M 354.5,22.5 C 355.833,23.1667 355.833,23.1667 354.5,22.5 Z"/></g>
<g><path style="opacity:0.004" fill="#000000" d="M 417.5,22.5 C 418.833,23.1667 418.833,23.1667 417.5,22.5 Z"/></g>
<g><path style="opacity:0.004" fill="#000000" d="M 458.5,22.5 C 459.833,23.1667 459.833,23.1667 458.5,22.5 Z"/></g>
<g><path style="opacity:0.004" fill="#000000" d="M 82.5,23.5 C 83.8333,24.1667 83.8333,24.1667 82.5,23.5 Z"/></g>
<g><path style="opacity:0.004" fill="#000000" d="M 148.5,23.5 C 149.833,24.1667 149.833,24.1667 148.5,23.5 Z"/></g>
<g><path style="opacity:0.004" fill="#000000" d="M 152.5,23.5 C 153.833,24.1667 153.833,24.1667 152.5,23.5 Z"/></g>
<g><path style="opacity:0.004" fill="#000000" d="M 135.5,24.5 C 136.833,25.1667 136.833,25.1667 135.5,24.5 Z"/></g>
<g><path style="opacity:0.004" fill="#000000" d="M 262.5,24.5 C 263.833,25.1667 263.833,25.1667 262.5,24.5 Z"/></g>
<g><path style="opacity:0.004" fill="#000000" d="M 143.5,26.5 C 143.897,25.475 144.563,25.3083 145.5,26C 144.906,26.4643 144.239,26.631 143.5,26.5 Z"/></g>
<g><path style="opacity:0.004" fill="#000000" d="M 140.5,26.5 C 141.833,27.1667 141.833,27.1667 140.5,26.5 Z"/></g>
<g><path style="opacity:0.004" fill="#000000" d="M 151.5,26.5 C 152.833,27.1667 152.833,27.1667 151.5,26.5 Z"/></g>
<g><path style="opacity:0.004" fill="#000000" d="M 294.5,26.5 C 295.833,27.1667 295.833,27.1667 294.5,26.5 Z"/></g>
<g><path style="opacity:0.004" fill="#000000" d="M 455.5,26.5 C 456.833,27.1667 456.833,27.1667 455.5,26.5 Z"/></g>
<g><path style="opacity:0.004" fill="#000000" d="M 245.5,27.5 C 246.833,28.1667 246.833,28.1667 245.5,27.5 Z"/></g>
<g><path style="opacity:0.004" fill="#000000" d="M 346.5,27.5 C 347.833,28.1667 347.833,28.1667 346.5,27.5 Z"/></g>
<g><path style="opacity:0.004" fill="#000000" d="M 351.5,27.5 C 352.833,28.1667 352.833,28.1667 351.5,27.5 Z"/></g>
<g><path style="opacity:0.004" fill="#000000" d="M 85.5,29.5 C 84.8333,28.1667 84.8333,28.1667 85.5,29.5 Z"/></g>
<g><path style="opacity:0.004" fill="#000000" d="M 88.5,28.5 C 87.8333,29.1667 87.8333,29.1667 88.5,28.5 Z"/></g>
<g><path style="opacity:0.004" fill="#000000" d="M 144.5,28.5 C 145.833,29.1667 145.833,29.1667 144.5,28.5 Z"/></g>
<g><path style="opacity:0.004" fill="#000000" d="M 344.5,28.5 C 345.833,29.1667 345.833,29.1667 344.5,28.5 Z"/></g>
<g><path style="opacity:0.004" fill="#000000" d="M 454.5,28.5 C 455.833,29.1667 455.833,29.1667 454.5,28.5 Z"/></g>
<g><path style="opacity:0.004" fill="#000000" d="M 85.5,29.5 C 86.8333,30.1667 86.8333,30.1667 85.5,29.5 Z"/></g>
<g><path style="opacity:0.004" fill="#000000" d="M 264.5,29.5 C 265.525,29.8966 265.692,30.5632 265,31.5C 264.536,30.9056 264.369,30.2389 264.5,29.5 Z"/></g>
<g><path style="opacity:0.004" fill="#000000" d="M 420.5,30.5 C 419.833,29.1667 419.833,29.1667 420.5,30.5 Z"/></g>
<g><path style="opacity:0.004" fill="#000000" d="M 456.5,29.5 C 457.833,30.1667 457.833,30.1667 456.5,29.5 Z"/></g>
<g><path style="opacity:0.004" fill="#000000" d="M 460.5,29.5 C 461.833,30.1667 461.833,30.1667 460.5,29.5 Z"/></g>
<g><path style="opacity:0.004" fill="#000000" d="M 79.5,30.5 C 80.8333,31.1667 80.8333,31.1667 79.5,30.5 Z"/></g>
<g><path style="opacity:0.004" fill="#000000" d="M 354.5,30.5 C 355.833,31.1667 355.833,31.1667 354.5,30.5 Z"/></g>
<g><path style="opacity:0.004" fill="#000000" d="M 416.5,30.5 C 417.833,31.1667 417.833,31.1667 416.5,30.5 Z"/></g>
<g><path style="opacity:0.004" fill="#000000" d="M 83.5,31.5 C 84.8333,32.1667 84.8333,32.1667 83.5,31.5 Z"/></g>
<g><path style="opacity:0.004" fill="#000000" d="M 356.5,31.5 C 357.833,32.1667 357.833,32.1667 356.5,31.5 Z"/></g>
<g><path style="opacity:0.004" fill="#19190c" d="M 454.5,33.5 C 453.833,33.5 453.5,33.1667 453.5,32.5C 455.346,31.2576 455.679,31.591 454.5,33.5 Z"/></g>
<g><path style="opacity:0.971" fill="#cede48" d="M 79.5,45.5 C 81.1271,47.6298 82.9604,49.6298 85,51.5C 85.4988,55.4862 85.6655,59.4862 85.5,63.5C 85.5,64.1667 85.5,64.8333 85.5,65.5C 85.5,66.8333 85.5,68.1667 85.5,69.5C 85.5,69.8333 85.5,70.1667 85.5,70.5C 85.5,71.1667 85.8333,71.5 86.5,71.5C 86.1667,72.1667 85.8333,72.8333 85.5,73.5C 85.5,74.5 85.5,75.5 85.5,76.5C 86.4054,77.9643 86.4054,79.2976 85.5,80.5C 85.5,81.5 85.5,82.5 85.5,83.5C 85.5,84.1667 85.5,84.8333 85.5,85.5C 85.5,85.8333 85.5,86.1667 85.5,86.5C 85.5,86.8333 85.5,87.1667 85.5,87.5C 85.5,88.8333 85.5,90.1667 85.5,91.5C 85.3284,92.4916 85.6618,93.1583 86.5,93.5C 86.5,94.1667 86.5,94.8333 86.5,95.5C 85.596,96.209 85.2627,97.209 85.5,98.5C 85.5,99.8333 85.5,101.167 85.5,102.5C 85.5,103.167 85.5,103.833 85.5,104.5C 85.5,104.833 85.5,105.167 85.5,105.5C 85.5,105.833 85.5,106.167 85.5,106.5C 85.5,107.5 85.5,108.5 85.5,109.5C 85.5,110.167 85.5,110.833 85.5,111.5C 85.5,111.833 85.5,112.167 85.5,112.5C 85.5,112.833 85.5,113.167 85.5,113.5C 85.5,115.833 85.5,118.167 85.5,120.5C 85.5,120.833 85.5,121.167 85.5,121.5C 85.5,122.833 85.5,124.167 85.5,125.5C 85.2627,126.791 85.596,127.791 86.5,128.5C 86.3713,130.216 86.038,131.883 85.5,133.5C 85.5,133.833 85.5,134.167 85.5,134.5C 85.5,136.5 85.5,138.5 85.5,140.5C 85.5,141.167 85.5,141.833 85.5,142.5C 85.803,145.773 85.803,149.106 85.5,152.5C 85.5,152.833 85.5,153.167 85.5,153.5C 85.5569,154.609 85.8902,155.609 86.5,156.5C 85.8333,156.5 85.5,156.833 85.5,157.5C 85.5,158.167 85.5,158.833 85.5,159.5C 85.6633,161.857 85.4966,164.19 85,166.5C 84.0053,167.066 83.172,167.733 82.5,168.5C 81.2905,168.932 80.2905,169.599 79.5,170.5C 79.5,170.833 79.5,171.167 79.5,171.5C 78.2905,171.932 77.2905,172.599 76.5,173.5C 75.5,173.833 74.8333,174.5 74.5,175.5C 71.2024,176.964 68.7024,179.297 67,182.5C 66.2303,181.402 65.397,181.402 64.5,182.5C 63.8333,182.5 63.5,182.833 63.5,183.5C 62.8333,183.5 62.5,183.833 62.5,184.5C 50.2465,193.123 38.5799,202.457 27.5,212.5C 26.8333,212.833 26.1667,213.167 25.5,213.5C 24.5,213.833 23.8333,214.5 23.5,215.5C 20.75,218.055 17.75,220.388 14.5,222.5C 9.96857,218.803 5.96857,214.636 2.5,210C 3.60138,207.965 4.26804,205.798 4.5,203.5C 4.64752,149.318 4.48085,94.9847 4,40.5C 2.63658,38.3162 1.13658,36.3162 -0.5,34.5C -0.5,34.1667 -0.5,33.8333 -0.5,33.5C 19.7603,32.3462 40.0936,32.1795 60.5,33C 67.2043,36.6799 73.5377,40.8466 79.5,45.5 Z"/></g>
<g><path style="opacity:0.979" fill="#cbda47" d="M 268.5,32.5 C 269.5,32.5 270.5,32.5 271.5,32.5C 271.833,32.5 272.167,32.5 272.5,32.5C 272.833,32.5 273.167,32.5 273.5,32.5C 276.833,36.5 280.5,40.1667 284.5,43.5C 284.5,43.8333 284.5,44.1667 284.5,44.5C 286.167,46.8333 288.167,48.8333 290.5,50.5C 290.932,51.7095 291.599,52.7095 292.5,53.5C 292.5,54.1667 292.833,54.5 293.5,54.5C 293.787,57.4537 293.787,60.4537 293.5,63.5C 293.5,63.8333 293.5,64.1667 293.5,64.5C 294.304,68.4286 294.304,72.7619 293.5,77.5C 293.5,78.1667 293.5,78.8333 293.5,79.5C 294.422,116.533 294.755,152.866 294.5,188.5C 294.5,188.833 294.5,189.167 294.5,189.5C 293.391,189.557 292.391,189.89 291.5,190.5C 290.833,190.5 290.5,190.833 290.5,191.5C 289.5,192.167 288.5,192.833 287.5,193.5C 286.833,193.5 286.5,193.833 286.5,194.5C 285.167,195.5 283.833,196.5 282.5,197.5C 281.5,197.833 280.833,198.5 280.5,199.5C 278.861,200.473 277.527,201.806 276.5,203.5C 269.381,208.713 262.715,214.379 256.5,220.5C 254.692,220.509 253.025,220.009 251.5,219C 238.333,206.5 225.167,194 212,181.5C 211.333,136.167 211.333,90.8333 212,45.5C 215.045,41.2435 218.212,37.0768 221.5,33C 237.163,32.5001 252.83,32.3334 268.5,32.5 Z"/></g>
<g><path style="opacity:0.99" fill="#cbda47" d="M 293.5,32.5 C 313.169,32.3334 332.836,32.5 352.5,33C 354.193,33.8466 355.86,34.6799 357.5,35.5C 365.309,39.7932 372.143,45.4598 378,52.5C 378.667,69.1667 378.667,85.8333 378,102.5C 372.582,105.793 367.082,108.96 361.5,112C 367.593,116.089 373.093,120.922 378,126.5C 378.197,141.859 378.697,157.192 379.5,172.5C 376.765,175.612 373.931,178.612 371,181.5C 370.667,181.167 370.333,180.833 370,180.5C 364.5,184.667 359,188.833 353.5,193C 352.167,193.667 350.833,193.667 349.5,193C 346.333,189.833 343.167,186.667 340,183.5C 339.833,166.823 339.333,150.157 338.5,133.5C 337.914,133.291 337.414,132.957 337,132.5C 336.333,154.167 336.333,175.833 337,197.5C 338.751,199.212 339.418,201.212 339,203.5C 328.5,211.333 318,219.167 307.5,227C 306.423,227.47 305.423,227.303 304.5,226.5C 304.5,225.833 304.167,225.5 303.5,225.5C 303.5,224.833 303.167,224.5 302.5,224.5C 302.167,223.5 301.5,222.833 300.5,222.5C 300.167,221.5 299.5,220.833 298.5,220.5C 298.5,219.833 298.167,219.5 297.5,219.5C 297.167,218.5 296.5,217.833 295.5,217.5C 294.833,216.5 294.167,215.5 293.5,214.5C 294.167,214.5 294.5,214.167 294.5,213.5C 295.338,213.158 295.672,212.492 295.5,211.5C 295.5,211.167 295.5,210.833 295.5,210.5C 296.167,210.5 296.5,210.167 296.5,209.5C 296.5,208.833 296.5,208.167 296.5,207.5C 297.833,151.833 297.833,96.1667 296.5,40.5C 296.167,39.8333 295.833,39.1667 295.5,38.5C 295.167,37.5 294.5,36.8333 293.5,36.5C 293.167,35.8333 292.833,35.1667 292.5,34.5C 292.5,34.1667 292.5,33.8333 292.5,33.5C 293.167,33.5 293.5,33.1667 293.5,32.5 Z"/></g>
<g><path style="opacity:0.986" fill="#d0df48" d="M 418.5,42.5 C 418.5,42.8333 418.5,43.1667 418.5,43.5C 418.5,64.8333 418.5,86.1667 418.5,107.5C 421.5,107.5 424.5,107.5 427.5,107.5C 427.5,106.5 427.5,105.5 427.5,104.5C 427.672,103.508 427.338,102.842 426.5,102.5C 426.833,101.833 427.167,101.167 427.5,100.5C 427.5,100.167 427.5,99.8333 427.5,99.5C 427.5,98.1667 426.833,97.5 425.5,97.5C 425.5,97.1667 425.5,96.8333 425.5,96.5C 426.833,96.5 427.5,95.8333 427.5,94.5C 427.5,93.8333 427.5,93.1667 427.5,92.5C 427.5,92.1667 427.5,91.8333 427.5,91.5C 427.5,90.1667 427.5,88.8333 427.5,87.5C 427.5,86.8333 427.167,86.5 426.5,86.5C 426.433,85.0413 426.766,83.7079 427.5,82.5C 427.5,80.5 427.5,78.5 427.5,76.5C 427.5,76.1667 427.5,75.8333 427.5,75.5C 427.5,68.5 427.5,61.5 427.5,54.5C 427.5,54.1667 427.5,53.8333 427.5,53.5C 427.5,46.5 427.5,39.5 427.5,32.5C 435.833,32.5 444.167,32.5 452.5,32.5C 452.833,32.5 453.167,32.5 453.5,32.5C 453.5,33.1667 453.833,33.5 454.5,33.5C 457.833,36.5 461.167,39.5 464.5,42.5C 464.5,77.1667 464.5,111.833 464.5,146.5C 458.833,147.167 453.167,147.833 447.5,148.5C 447.5,147.833 447.167,147.5 446.5,147.5C 445.5,147.5 444.5,147.5 443.5,147.5C 442.167,163.5 442.167,179.5 443.5,195.5C 444.167,196.167 444.833,196.833 445.5,197.5C 446.141,198.482 446.807,199.482 447.5,200.5C 443.607,205.118 438.941,208.784 433.5,211.5C 432.5,211.833 431.833,212.5 431.5,213.5C 425.811,217.685 419.978,221.685 414,225.5C 409.712,222.215 405.712,218.548 402,214.5C 402.324,210.513 402.991,206.513 404,202.5C 404.5,184.17 404.667,165.836 404.5,147.5C 400.486,147.666 396.486,147.499 392.5,147C 389,143.5 385.5,140 382,136.5C 381.667,104.167 381.333,71.8333 381,39.5C 379.122,37.9571 377.622,36.1238 376.5,34C 387.008,32.36 397.675,32.0267 408.5,33C 411.703,36.3709 415.036,39.5375 418.5,42.5 Z M 420.5,45.5 C 421.222,45.9175 421.722,46.5842 422,47.5C 422.383,46.944 422.883,46.6107 423.5,46.5C 424.234,47.7079 424.567,49.0413 424.5,50.5C 423.508,50.6716 422.842,50.3382 422.5,49.5C 419.756,52.4931 420.423,53.1597 424.5,51.5C 424.179,53.0481 423.179,53.7148 421.5,53.5C 421.259,56.999 422.092,57.3323 424,54.5C 426.096,55.7155 425.929,56.5488 423.5,57C 425.373,57.9529 425.706,59.1196 424.5,60.5C 426.842,60.7748 426.842,61.6081 424.5,63C 424.47,64.4293 424.803,65.9293 425.5,67.5C 424.624,67.3691 423.957,67.7025 423.5,68.5C 424.174,70.1955 424.841,71.8621 425.5,73.5C 426.338,73.8417 426.672,74.5084 426.5,75.5C 424.952,75.8212 424.285,76.8212 424.5,78.5C 425.117,78.3893 425.617,78.056 426,77.5C 425.57,79.127 425.404,80.627 425.5,82C 426.094,82.4643 426.761,82.631 427.5,82.5C 426.766,83.7079 426.433,85.0413 426.5,86.5C 426.167,86.5 425.833,86.5 425.5,86.5C 425.796,88.403 426.463,90.0697 427.5,91.5C 427.5,91.8333 427.5,92.1667 427.5,92.5C 426.391,92.4431 425.391,92.1098 424.5,91.5C 424.833,92.8333 425.167,94.1667 425.5,95.5C 424.167,95.8333 424.167,96.1667 425.5,96.5C 425.5,96.8333 425.5,97.1667 425.5,97.5C 424.167,97.8333 424.167,98.1667 425.5,98.5C 425.5,99.1667 425.5,99.8333 425.5,100.5C 426.167,100.5 426.833,100.5 427.5,100.5C 427.167,101.167 426.833,101.833 426.5,102.5C 427.338,102.842 427.672,103.508 427.5,104.5C 425.844,106.182 423.177,106.848 419.5,106.5C 419.529,86.1349 419.862,65.8016 420.5,45.5 Z M 427.5,94.5 C 427.5,95.8333 426.833,96.5 425.5,96.5C 425.5,96.1667 425.5,95.8333 425.5,95.5C 426.167,95.1667 426.833,94.8333 427.5,94.5 Z M 425.5,98.5 C 425.5,98.1667 425.5,97.8333 425.5,97.5C 426.833,97.5 427.5,98.1667 427.5,99.5C 426.833,99.1667 426.167,98.8333 425.5,98.5 Z"/></g>
<g><path style="opacity:0.104" fill="#25260f" d="M 89.5,33.5 C 89.8324,92.669 89.499,151.669 88.5,210.5C 87.8404,193.26 87.8404,176.594 88.5,160.5C 88.3601,158.97 87.6935,157.97 86.5,157.5C 86.5,157.167 86.5,156.833 86.5,156.5C 88.0481,156.179 88.7148,155.179 88.5,153.5C 87.5,153.5 86.5,153.5 85.5,153.5C 85.5,153.167 85.5,152.833 85.5,152.5C 86.552,152.649 87.552,152.483 88.5,152C 87.8929,147.488 87.8929,142.821 88.5,138C 87.8366,136.482 86.8366,135.315 85.5,134.5C 85.5,134.167 85.5,133.833 85.5,133.5C 88.5031,132.83 89.1697,131.163 87.5,128.5C 88.3382,128.158 88.6716,127.492 88.5,126.5C 88.5,125.833 88.5,125.167 88.5,124.5C 88.5,124.167 88.5,123.833 88.5,123.5C 88.5,123.167 88.5,122.833 88.5,122.5C 88.5,122.167 88.5,121.833 88.5,121.5C 88.5,120.167 88.5,118.833 88.5,117.5C 88.6716,116.508 88.3382,115.842 87.5,115.5C 87.5,115.167 87.5,114.833 87.5,114.5C 88.1667,114.5 88.5,114.167 88.5,113.5C 88.5,112.167 88.5,110.833 88.5,109.5C 88.5,109.167 88.5,108.833 88.5,108.5C 88.5,108.167 88.5,107.833 88.5,107.5C 88.5,107.167 88.5,106.833 88.5,106.5C 88.5,105.5 88.5,104.5 88.5,103.5C 88.1667,102.167 87.8333,102.167 87.5,103.5C 86.8333,103.167 86.1667,102.833 85.5,102.5C 85.5,101.167 85.5,99.8333 85.5,98.5C 87.4812,97.8946 87.8146,96.8946 86.5,95.5C 87.8333,94.8333 87.8333,94.1667 86.5,93.5C 86.6716,92.5084 86.3382,91.8417 85.5,91.5C 85.5,90.1667 85.5,88.8333 85.5,87.5C 86.8333,87.1667 86.8333,86.8333 85.5,86.5C 85.5,86.1667 85.5,85.8333 85.5,85.5C 86.8333,84.8333 86.8333,84.1667 85.5,83.5C 85.5,82.5 85.5,81.5 85.5,80.5C 86.2216,80.9175 86.7216,81.5842 87,82.5C 88.6714,80.0066 88.1714,78.0066 85.5,76.5C 85.5,75.5 85.5,74.5 85.5,73.5C 86.4959,73.4142 87.3292,73.7476 88,74.5C 88.7252,72.8425 88.2252,71.8425 86.5,71.5C 85.8333,71.5 85.5,71.1667 85.5,70.5C 85.5,70.1667 85.5,69.8333 85.5,69.5C 86.8333,68.1667 86.8333,66.8333 85.5,65.5C 85.5,64.8333 85.5,64.1667 85.5,63.5C 86.552,63.6495 87.552,63.4828 88.5,63C 87.9504,60.7856 87.9504,58.4523 88.5,56C 88.5066,54.1878 87.84,52.6878 86.5,51.5C 89.028,50.1841 89.028,49.0174 86.5,48C 89.1667,46.6667 89.1667,45.3333 86.5,44C 87.7117,40.4301 88.7117,36.9301 89.5,33.5 Z"/></g>
<g><path style="opacity:0.02" fill="#272a0f" d="M 168.5,33.5 C 168.666,39.5092 168.499,45.5092 168,51.5C 167.59,50.0993 167.09,48.766 166.5,47.5C 167.167,42.8333 167.833,38.1667 168.5,33.5 Z"/></g>
<g><path style="opacity:0.004" fill="#000000" d="M 357.5,34.5 C 358.833,35.1667 358.833,35.1667 357.5,34.5 Z"/></g>
<g><path style="opacity:0.004" fill="#000000" d="M 75.5,35.5 C 76.8333,36.1667 76.8333,36.1667 75.5,35.5 Z"/></g>
<g><path style="opacity:0.004" fill="#000000" d="M 77.5,35.5 C 78.8333,36.1667 78.8333,36.1667 77.5,35.5 Z"/></g>
<g><path style="opacity:1" fill="#96bd3f" d="M 450.5,35.5 C 451.498,68.3291 451.832,101.329 451.5,134.5C 444.5,134.5 437.5,134.5 430.5,134.5C 436.979,133.509 443.646,133.176 450.5,133.5C 450.5,100.833 450.5,68.1667 450.5,35.5 Z"/></g>
<g><path style="opacity:1" fill="#2d7f2e" d="M 5.5,36.5 C 22.9952,35.3381 40.6619,35.1714 58.5,36C 62.367,38.6979 66.367,41.1979 70.5,43.5C 71.6666,80.4955 71.8333,117.495 71,154.5C 50,171.5 29,188.5 8,205.5C 7.66667,149.5 7.33333,93.5 7,37.5C 6.61742,36.944 6.11742,36.6107 5.5,36.5 Z"/></g>
<g><path style="opacity:1" fill="#2b7e2e" d="M 92.5,35.5 C 99.8333,35.5 107.167,35.5 114.5,35.5C 114.333,87.1677 114.5,138.834 115,190.5C 115.638,191.609 116.138,192.775 116.5,194C 109.279,200.384 101.612,206.217 93.5,211.5C 92.5,152.837 92.1667,94.1705 92.5,35.5 Z"/></g>
<g><path style="opacity:1" fill="#2b7e2e" d="M 128.5,36.5 C 136.65,35.5073 144.983,35.1739 153.5,35.5C 158.021,51.2329 162.855,66.8996 168,82.5C 168.71,83.9733 169.876,84.6399 171.5,84.5C 171.5,68.1667 171.5,51.8333 171.5,35.5C 179.5,35.5 187.5,35.5 195.5,35.5C 195.17,75.4058 195.503,115.239 196.5,155C 188.881,160.284 181.548,165.951 174.5,172C 173.552,172.483 172.552,172.649 171.5,172.5C 167.001,154.671 161.334,137.338 154.5,120.5C 153.178,142.535 153.178,164.535 154.5,186.5C 146.981,193.182 139.147,199.516 131,205.5C 131.654,149.887 131.654,94.2207 131,38.5C 130.292,37.6195 129.458,36.9528 128.5,36.5 Z"/></g>
<g><path style="opacity:1" fill="#2c7f2e" d="M 223.5,35.5 C 239.503,35.3334 255.503,35.5001 271.5,36C 273.979,39.3132 276.645,42.4798 279.5,45.5C 280.667,89.1629 280.833,132.83 280,176.5C 268.628,186.874 256.961,196.874 245,206.5C 235.333,197.5 225.667,188.5 216,179.5C 215.333,135.167 215.333,90.8333 216,46.5C 218.52,42.7757 221.02,39.1091 223.5,35.5 Z"/></g>
<g><path style="opacity:1" fill="#2b7e2e" d="M 297.5,36.5 C 314.995,35.3381 332.662,35.1714 350.5,36C 354.833,38.5 359.167,41 363.5,43.5C 364.666,59.156 364.833,74.8227 364,90.5C 355.919,94.789 348.085,99.4557 340.5,104.5C 348.05,109.53 355.883,114.196 364,118.5C 364.667,133.5 364.667,148.5 364,163.5C 357.361,167.973 350.861,172.639 344.5,177.5C 343.667,160.843 343.167,144.177 343,127.5C 336.861,123.346 330.361,120.179 323.5,118C 322.34,141.427 322.173,164.927 323,188.5C 323.956,189.579 324.789,190.745 325.5,192C 317.167,198.167 308.833,204.333 300.5,210.5C 300.656,153.344 300.49,96.0103 300,38.5C 299.292,37.6195 298.458,36.9528 297.5,36.5 Z"/></g>
<g><path style="opacity:1" fill="#2b7e2e" d="M 450.5,35.5 C 450.5,68.1667 450.5,100.833 450.5,133.5C 443.646,133.176 436.979,133.509 430.5,134.5C 429.338,151.662 429.171,168.995 430,186.5C 431.084,187.665 431.917,188.998 432.5,190.5C 423.949,196.7 415.449,203.033 407,209.5C 407.8,184.371 407.633,159.371 406.5,134.5C 399.687,133.509 392.687,133.175 385.5,133.5C 385.832,101.662 385.498,69.9956 384.5,38.5C 384.047,37.5416 383.381,36.7083 382.5,36C 390.159,35.5003 397.826,35.3336 405.5,35.5C 405.5,60.5 405.5,85.5 405.5,110.5C 413.833,110.5 422.167,110.5 430.5,110.5C 430.5,85.5 430.5,60.5 430.5,35.5C 437.167,35.5 443.833,35.5 450.5,35.5 Z M 420.5,45.5 C 421.222,45.9175 421.722,46.5842 422,47.5C 422.383,46.944 422.883,46.6107 423.5,46.5C 424.234,47.7079 424.567,49.0413 424.5,50.5C 423.508,50.6716 422.842,50.3382 422.5,49.5C 419.756,52.4931 420.423,53.1597 424.5,51.5C 424.179,53.0481 423.179,53.7148 421.5,53.5C 421.259,56.999 422.092,57.3323 424,54.5C 426.096,55.7155 425.929,56.5488 423.5,57C 425.373,57.9529 425.706,59.1196 424.5,60.5C 426.842,60.7748 426.842,61.6081 424.5,63C 424.47,64.4293 424.803,65.9293 425.5,67.5C 424.624,67.3691 423.957,67.7025 423.5,68.5C 424.174,70.1955 424.841,71.8621 425.5,73.5C 426.338,73.8417 426.672,74.5084 426.5,75.5C 424.952,75.8212 424.285,76.8212 424.5,78.5C 425.117,78.3893 425.617,78.056 426,77.5C 425.57,79.127 425.404,80.627 425.5,82C 426.094,82.4643 426.761,82.631 427.5,82.5C 426.766,83.7079 426.433,85.0413 426.5,86.5C 426.167,86.5 425.833,86.5 425.5,86.5C 425.796,88.403 426.463,90.0697 427.5,91.5C 427.5,91.8333 427.5,92.1667 427.5,92.5C 426.391,92.4431 425.391,92.1098 424.5,91.5C 424.833,92.8333 425.167,94.1667 425.5,95.5C 424.167,95.8333 424.167,96.1667 425.5,96.5C 425.5,96.8333 425.5,97.1667 425.5,97.5C 424.167,97.8333 424.167,98.1667 425.5,98.5C 425.5,99.1667 425.5,99.8333 425.5,100.5C 426.167,100.5 426.833,100.5 427.5,100.5C 427.167,101.167 426.833,101.833 426.5,102.5C 427.338,102.842 427.672,103.508 427.5,104.5C 425.844,106.182 423.177,106.848 419.5,106.5C 419.529,86.1349 419.862,65.8016 420.5,45.5 Z M 427.5,94.5 C 427.5,95.8333 426.833,96.5 425.5,96.5C 425.5,96.1667 425.5,95.8333 425.5,95.5C 426.167,95.1667 426.833,94.8333 427.5,94.5 Z M 425.5,98.5 C 425.5,98.1667 425.5,97.8333 425.5,97.5C 426.833,97.5 427.5,98.1667 427.5,99.5C 426.833,99.1667 426.167,98.8333 425.5,98.5 Z"/></g>
<g><path style="opacity:0.004" fill="#000000" d="M 420.5,36.5 C 419.833,35.1667 419.833,35.1667 420.5,36.5 Z"/></g>
<g><path style="opacity:0.004" fill="#000000" d="M 421.5,38.5 C 422.833,39.1667 422.833,39.1667 421.5,38.5 Z"/></g>
<g><path style="opacity:0.004" fill="#000000" d="M 85.5,39.5 C 86.8333,40.1667 86.8333,40.1667 85.5,39.5 Z"/></g>
<g><path style="opacity:0.005" fill="#000000" d="M 292.5,39.5 C 292.833,39.5 293.167,39.5 293.5,39.5C 293.443,40.609 293.11,41.609 292.5,42.5C 292.167,42.5 291.833,42.5 291.5,42.5C 291.5,41.8333 291.5,41.1667 291.5,40.5C 292.167,40.5 292.5,40.1667 292.5,39.5 Z"/></g>
<g><path style="opacity:1" fill="#97be3f" d="M 384.5,38.5 C 385.498,69.9956 385.832,101.662 385.5,133.5C 392.687,133.175 399.687,133.509 406.5,134.5C 399.167,134.5 391.833,134.5 384.5,134.5C 384.5,102.5 384.5,70.5 384.5,38.5 Z"/></g>
<g><path style="opacity:0.004" fill="#000000" d="M 421.5,39.5 C 420.833,40.1667 420.833,40.1667 421.5,39.5 Z"/></g>
<g><path style="opacity:0.063" fill="#25270e" d="M 296.5,40.5 C 297.833,96.1667 297.833,151.833 296.5,207.5C 296.5,206.833 296.167,206.5 295.5,206.5C 295.5,205.5 295.5,204.5 295.5,203.5C 295.167,203.5 294.833,203.5 294.5,203.5C 293.972,202.279 293.305,201.113 292.5,200C 294.116,199.385 295.449,198.385 296.5,197C 296.377,195.211 296.377,193.378 296.5,191.5C 295.757,190.818 295.091,190.151 294.5,189.5C 295.376,189.631 296.043,189.298 296.5,188.5C 296.03,187.537 295.363,187.537 294.5,188.5C 294.721,187.265 295.388,186.265 296.5,185.5C 295.909,177.689 295.909,169.856 296.5,162C 295.833,161.667 295.167,161.333 294.5,161C 295.821,150.894 296.488,140.561 296.5,130C 295.873,108.82 295.873,87.8201 296.5,67C 296.333,66.1667 296.167,65.3333 296,64.5C 295.23,65.5981 294.397,65.5981 293.5,64.5C 293.5,64.1667 293.5,63.8333 293.5,63.5C 294.5,63.5 295.5,63.5 296.5,63.5C 295.905,59.7203 295.905,56.3869 296.5,53.5C 296.167,53.1667 295.833,52.8333 295.5,52.5C 294.818,53.2427 294.151,53.9094 293.5,54.5C 292.833,54.5 292.5,54.1667 292.5,53.5C 291.599,52.7095 290.932,51.7095 290.5,50.5C 291.167,50.5 291.833,50.5 292.5,50.5C 292.833,51.8333 293.167,51.8333 293.5,50.5C 294.5,50.5 295.5,50.5 296.5,50.5C 296.163,46.9889 296.163,43.6556 296.5,40.5 Z M 295.5,203.5 C 294.323,201.897 294.489,200.564 296,199.5C 296.765,201.066 296.598,202.399 295.5,203.5 Z"/></g>
<g><path style="opacity:0.004" fill="#000000" d="M 85.5,41.5 C 86.8333,42.1667 86.8333,42.1667 85.5,41.5 Z"/></g>
<g><path style="opacity:0.004" fill="#000000" d="M 418.5,41.5 C 419.833,42.1667 419.833,42.1667 418.5,41.5 Z"/></g>
<g><path style="opacity:0.004" fill="#000000" d="M 421.5,41.5 C 422.525,41.8966 422.692,42.5632 422,43.5C 421.536,42.9056 421.369,42.2389 421.5,41.5 Z"/></g>
<g><path style="opacity:0.004" fill="#000000" d="M 82.5,42.5 C 83.8333,43.1667 83.8333,43.1667 82.5,42.5 Z"/></g>
<g><path style="opacity:0.019" fill="#3c4017" d="M 128.5,51.5 C 128.167,51.5 127.833,51.5 127.5,51.5C 127.665,48.4816 127.498,45.4816 127,42.5C 123.541,39.7704 123.874,39.1037 128,40.5C 128.499,44.1516 128.665,47.8183 128.5,51.5 Z"/></g>
<g><path style="opacity:0.016" fill="#21240c" d="M 418.5,43.5 C 419.167,44.1667 419.833,44.8333 420.5,45.5C 419.862,65.8016 419.529,86.1349 419.5,106.5C 423.177,106.848 425.844,106.182 427.5,104.5C 427.5,105.5 427.5,106.5 427.5,107.5C 424.5,107.5 421.5,107.5 418.5,107.5C 418.5,86.1667 418.5,64.8333 418.5,43.5 Z"/></g>
<g><path style="opacity:0.004" fill="#000000" d="M 79.5,44.5 C 80.8333,45.1667 80.8333,45.1667 79.5,44.5 Z"/></g>
<g><path style="opacity:0.004" fill="#000000" d="M 420.5,45.5 C 421.779,44.2848 422.779,44.6182 423.5,46.5C 422.883,46.6107 422.383,46.944 422,47.5C 421.722,46.5842 421.222,45.9175 420.5,45.5 Z"/></g>
<g><path style="opacity:0.004" fill="#000000" d="M 86.5,45.5 C 87.8333,46.1667 87.8333,46.1667 86.5,45.5 Z"/></g>
<g><path style="opacity:0.004" fill="#000000" d="M 422.5,49.5 C 422.842,50.3382 423.508,50.6716 424.5,50.5C 424.5,50.8333 424.5,51.1667 424.5,51.5C 420.423,53.1597 419.756,52.4931 422.5,49.5 Z"/></g>
<g><path style="opacity:1" fill="#cede48" d="M 238.5,56.5 C 244.425,56.1918 250.259,56.5251 256,57.5C 256.667,96.5 256.667,135.5 256,174.5C 255.586,174.957 255.086,175.291 254.5,175.5C 248.853,171.021 243.353,166.354 238,161.5C 237.174,126.429 237.341,91.4286 238.5,56.5 Z"/></g>
<g><path style="opacity:1" fill="#cfdf49" d="M 29.5,59.5 C 35.8333,59.5 42.1667,59.5 48.5,59.5C 48.6666,85.5021 48.5,111.502 48,137.5C 43.2139,140.618 38.7139,144.118 34.5,148C 32.9751,149.009 31.3084,149.509 29.5,149.5C 29.5,119.5 29.5,89.5 29.5,59.5 Z"/></g>
<g><path style="opacity:0.992" fill="#d3e249" d="M 322.5,59.5 C 329.5,59.5 336.5,59.5 343.5,59.5C 343.831,66.8635 343.497,74.1968 342.5,81.5C 336.33,85.4192 329.997,89.0859 323.5,92.5C 322.501,81.5202 322.168,70.5202 322.5,59.5 Z"/></g>
<g><path style="opacity:0.004" fill="#000000" d="M 420.5,68.5 C 421.289,68.7828 421.956,69.2828 422.5,70C 421.184,70.5281 420.517,70.0281 420.5,68.5 Z"/></g>
<g><path style="opacity:0.352" fill="#3a3d18" d="M 252.5,73.5 C 251.167,73.8333 251.167,74.1667 252.5,74.5C 252.5,76.8333 252.5,79.1667 252.5,81.5C 251.167,81.8333 251.167,82.1667 252.5,82.5C 252.5,86.8333 252.5,91.1667 252.5,95.5C 251.167,96.1667 251.167,96.8333 252.5,97.5C 252.5,102.833 252.5,108.167 252.5,113.5C 251.167,114.167 251.167,114.833 252.5,115.5C 252.5,115.833 252.5,116.167 252.5,116.5C 251.167,117.5 251.167,118.5 252.5,119.5C 252.5,123.833 252.5,128.167 252.5,132.5C 251.167,133.5 251.167,134.5 252.5,135.5C 252.5,135.833 252.5,136.167 252.5,136.5C 251.167,137.5 251.167,138.5 252.5,139.5C 252.5,144.5 252.5,149.5 252.5,154.5C 251.167,154.833 251.167,155.167 252.5,155.5C 252.5,155.833 252.5,156.167 252.5,156.5C 251.167,157.167 251.167,157.833 252.5,158.5C 252.665,162.182 252.499,165.848 252,169.5C 251.667,169.167 251.333,168.833 251,168.5C 250.167,135.828 250.333,103.162 251.5,70.5C 252.386,71.325 252.719,72.325 252.5,73.5 Z"/></g>
<g><path style="opacity:0.28" fill="#424719" d="M 44.5,84.5 C 43.1667,84.8333 43.1667,85.1667 44.5,85.5C 44.5,87.5 44.5,89.5 44.5,91.5C 43.1667,91.8333 43.1667,92.1667 44.5,92.5C 44.5,92.8333 44.5,93.1667 44.5,93.5C 43.1667,96.8333 43.1667,100.167 44.5,103.5C 44.5,103.833 44.5,104.167 44.5,104.5C 43.1667,105.5 43.1667,106.5 44.5,107.5C 44.5,107.833 44.5,108.167 44.5,108.5C 43.1667,108.833 43.1667,109.167 44.5,109.5C 44.5,109.833 44.5,110.167 44.5,110.5C 43.1667,118.833 43.1667,127.167 44.5,135.5C 44.2172,136.289 43.7172,136.956 43,137.5C 42.1669,115.826 42.3336,94.159 43.5,72.5C 44.4909,76.4454 44.8242,80.4454 44.5,84.5 Z"/></g>
<g><path style="opacity:0.035" fill="#111106" d="M 335.5,80.5 C 336.833,80.1667 336.833,79.8333 335.5,79.5C 335.5,77.1667 335.5,74.8333 335.5,72.5C 337.167,72.5 338.833,72.5 340.5,72.5C 341.176,76.5144 339.843,79.5144 336.5,81.5C 335.893,81.3764 335.56,81.0431 335.5,80.5 Z"/></g>
<g><path style="opacity:0.005" fill="#131405" d="M 426.5,75.5 C 426.5,76.1667 426.833,76.5 427.5,76.5C 427.5,78.5 427.5,80.5 427.5,82.5C 426.761,82.631 426.094,82.4643 425.5,82C 425.404,80.627 425.57,79.127 426,77.5C 425.617,78.056 425.117,78.3893 424.5,78.5C 424.285,76.8212 424.952,75.8212 426.5,75.5 Z"/></g>
<g><path style="opacity:0.004" fill="#000000" d="M 293.5,77.5 C 295.933,77.7856 295.933,78.4523 293.5,79.5C 293.5,78.8333 293.5,78.1667 293.5,77.5 Z"/></g>
<g><path style="opacity:0.004" fill="#000000" d="M 422.5,78.5 C 423.167,78.5 423.833,78.5 424.5,78.5C 424.672,79.4916 424.338,80.1583 423.5,80.5C 423.167,79.8333 422.833,79.1667 422.5,78.5 Z"/></g>
<g><path style="opacity:0.005" fill="#171807" d="M 425.5,86.5 C 425.833,86.5 426.167,86.5 426.5,86.5C 427.167,86.5 427.5,86.8333 427.5,87.5C 427.5,88.8333 427.5,90.1667 427.5,91.5C 426.463,90.0697 425.796,88.403 425.5,86.5 Z"/></g>
<g><path style="opacity:0.004" fill="#000000" d="M -0.5,91.5 C 0.833333,92.1667 0.833333,92.1667 -0.5,91.5 Z"/></g>
<g><path style="opacity:0.004" fill="#080902" d="M 424.5,91.5 C 425.391,92.1098 426.391,92.4431 427.5,92.5C 427.5,93.1667 427.5,93.8333 427.5,94.5C 426.833,94.8333 426.167,95.1667 425.5,95.5C 425.167,94.1667 424.833,92.8333 424.5,91.5 Z"/></g>
<g><path style="opacity:0.004" fill="#090a02" d="M 425.5,98.5 C 426.167,98.8333 426.833,99.1667 427.5,99.5C 427.5,99.8333 427.5,100.167 427.5,100.5C 426.833,100.5 426.167,100.5 425.5,100.5C 425.5,99.8333 425.5,99.1667 425.5,98.5 Z"/></g>
<g><path style="opacity:0.005" fill="#000000" d="M 87.5,103.5 C 87.8333,103.5 88.1667,103.5 88.5,103.5C 88.5,104.5 88.5,105.5 88.5,106.5C 87.1667,106.833 87.1667,107.167 88.5,107.5C 88.5,107.833 88.5,108.167 88.5,108.5C 87.1667,108.833 87.1667,109.167 88.5,109.5C 88.5,110.833 88.5,112.167 88.5,113.5C 87.8333,113.5 87.5,113.833 87.5,114.5C 86.1667,114.833 86.1667,115.167 87.5,115.5C 85.9689,116.925 86.3023,117.591 88.5,117.5C 88.5,118.833 88.5,120.167 88.5,121.5C 87.1667,121.833 87.1667,122.167 88.5,122.5C 88.5,122.833 88.5,123.167 88.5,123.5C 87.1667,123.833 87.1667,124.167 88.5,124.5C 88.5,125.167 88.5,125.833 88.5,126.5C 87.6618,126.842 87.3284,127.508 87.5,128.5C 87.1667,128.5 86.8333,128.5 86.5,128.5C 86.7373,127.209 86.404,126.209 85.5,125.5C 85.5,124.167 85.5,122.833 85.5,121.5C 86.8333,121.167 86.8333,120.833 85.5,120.5C 85.5,118.167 85.5,115.833 85.5,113.5C 86.8333,113.167 86.8333,112.833 85.5,112.5C 85.5,112.167 85.5,111.833 85.5,111.5C 86.8333,110.833 86.8333,110.167 85.5,109.5C 85.5,108.5 85.5,107.5 85.5,106.5C 86.8333,106.167 86.8333,105.833 85.5,105.5C 85.5,105.167 85.5,104.833 85.5,104.5C 86.4916,104.672 87.1583,104.338 87.5,103.5 Z"/></g>
<g><path style="opacity:0.004" fill="#000000" d="M 1.5,108.5 C 2.83333,109.167 2.83333,109.167 1.5,108.5 Z"/></g>
<g><path style="opacity:0.004" fill="#000000" d="M -0.5,116.5 C 0.833333,117.167 0.833333,117.167 -0.5,116.5 Z"/></g>
<g><path style="opacity:0.004" fill="#000000" d="M 1.5,120.5 C 2.83333,121.167 2.83333,121.167 1.5,120.5 Z"/></g>
<g><path style="opacity:0.004" fill="#000000" d="M 85.5,140.5 C 88.1667,141.167 88.1667,141.833 85.5,142.5C 85.5,141.833 85.5,141.167 85.5,140.5 Z"/></g>
<g><path style="opacity:0.53" fill="#79812d" d="M 443.5,147.5 C 443.5,149.833 443.5,152.167 443.5,154.5C 443.5,154.833 443.5,155.167 443.5,155.5C 443.5,157.167 443.5,158.833 443.5,160.5C 443.833,161.167 444.167,161.833 444.5,162.5C 443.375,163.348 443.375,164.348 444.5,165.5C 443.167,166.167 443.167,166.833 444.5,167.5C 444.5,168.167 444.5,168.833 444.5,169.5C 444.304,177.582 443.971,186.249 443.5,195.5C 442.167,179.5 442.167,163.5 443.5,147.5 Z"/></g>
<g><path style="opacity:0.005" fill="#000000" d="M 443.5,147.5 C 444.5,147.5 445.5,147.5 446.5,147.5C 446.5,147.833 446.5,148.167 446.5,148.5C 445.952,150.15 445.619,151.817 445.5,153.5C 444.833,153.833 444.167,154.167 443.5,154.5C 443.5,152.167 443.5,149.833 443.5,147.5 Z"/></g>
<g><path style="opacity:0.008" fill="#000000" d="M 446.5,148.5 C 446.833,148.5 447.167,148.5 447.5,148.5C 447.315,149.17 446.981,149.17 446.5,148.5 Z"/></g>
<g><path style="opacity:0.004" fill="#000000" d="M 449.5,148.5 C 450.833,149.167 450.833,149.167 449.5,148.5 Z"/></g>
<g><path style="opacity:0.006" fill="#000000" d="M 447.5,150.5 C 448.525,150.897 448.692,151.563 448,152.5C 447.536,151.906 447.369,151.239 447.5,150.5 Z"/></g>
<g><path style="opacity:0.004" fill="#000000" d="M 337.5,151.5 C 338.833,152.167 338.833,152.167 337.5,151.5 Z"/></g>
<g><path style="opacity:0.004" fill="#000000" d="M 445.5,153.5 C 446.5,153.833 447.167,154.5 447.5,155.5C 446.833,155.5 446.5,155.833 446.5,156.5C 445.347,157.313 445.347,158.313 446.5,159.5C 445.675,160.386 444.675,160.719 443.5,160.5C 443.5,158.833 443.5,157.167 443.5,155.5C 444.833,155.5 445.5,154.833 445.5,153.5 Z"/></g>
<g><path style="opacity:0.004" fill="#000000" d="M 450.5,155.5 C 449.518,156.141 448.518,156.807 447.5,157.5C 446.893,157.376 446.56,157.043 446.5,156.5C 447.167,156.5 447.5,156.167 447.5,155.5C 448.151,154.909 448.818,154.243 449.5,153.5C 450.298,153.957 450.631,154.624 450.5,155.5 Z"/></g>
<g><path style="opacity:0.004" fill="#000000" d="M 451.5,153.5 C 452.833,154.167 452.833,154.167 451.5,153.5 Z"/></g>
<g><path style="opacity:0.004" fill="#000000" d="M 450.5,155.5 C 451.833,156.167 451.833,156.167 450.5,155.5 Z"/></g>
<g><path style="opacity:0.004" fill="#000000" d="M 85.5,157.5 C 85.8333,157.5 86.1667,157.5 86.5,157.5C 88.0311,158.925 87.6977,159.591 85.5,159.5C 85.5,158.833 85.5,158.167 85.5,157.5 Z"/></g>
<g><path style="opacity:0.004" fill="#000000" d="M 448.5,159.5 C 447.833,158.167 447.833,158.167 448.5,159.5 Z"/></g>
<g><path style="opacity:0.004" fill="#000000" d="M 449.5,158.5 C 450.833,159.167 450.833,159.167 449.5,158.5 Z"/></g>
<g><path style="opacity:0.004" fill="#000000" d="M 453.5,158.5 C 454.833,159.167 454.833,159.167 453.5,158.5 Z"/></g>
<g><path style="opacity:0.004" fill="#000000" d="M 448.5,159.5 C 448.833,159.5 449.167,159.5 449.5,159.5C 449.315,160.17 448.981,160.17 448.5,159.5 Z"/></g>
<g><path style="opacity:0.004" fill="#000000" d="M 453.5,159.5 C 452.833,160.167 452.833,160.167 453.5,159.5 Z"/></g>
<g><path style="opacity:0.004" fill="#000000" d="M 86.5,161.5 C 87.8333,162.167 87.8333,162.167 86.5,161.5 Z"/></g>
<g><path style="opacity:0.006" fill="#000000" d="M 445.5,162.5 C 445.897,161.475 446.563,161.308 447.5,162C 446.906,162.464 446.239,162.631 445.5,162.5 Z"/></g>
<g><path style="opacity:0.004" fill="#000000" d="M 451.5,161.5 C 452.833,162.167 452.833,162.167 451.5,161.5 Z"/></g>
<g><path style="opacity:0.004" fill="#000000" d="M 454.5,161.5 C 455.833,162.167 455.833,162.167 454.5,161.5 Z"/></g>
<g><path style="opacity:0.004" fill="#000000" d="M 444.5,162.5 C 444.833,162.5 445.167,162.5 445.5,162.5C 445.315,163.17 444.981,163.17 444.5,162.5 Z"/></g>
<g><path style="opacity:0.004" fill="#000000" d="M 454.5,162.5 C 453.833,163.167 453.833,163.167 454.5,162.5 Z"/></g>
<g><path style="opacity:0.004" fill="#000000" d="M -0.5,163.5 C 0.833333,164.167 0.833333,164.167 -0.5,163.5 Z"/></g>
<g><path style="opacity:0.004" fill="#000000" d="M 448.5,163.5 C 449.833,164.167 449.833,164.167 448.5,163.5 Z"/></g>
<g><path style="opacity:0.004" fill="#000000" d="M 458.5,163.5 C 459.833,164.167 459.833,164.167 458.5,163.5 Z"/></g>
<g><path style="opacity:0.004" fill="#000000" d="M 444.5,165.5 C 445.338,165.842 445.672,166.508 445.5,167.5C 445.167,167.5 444.833,167.5 444.5,167.5C 444.5,166.833 444.5,166.167 444.5,165.5 Z"/></g>
<g><path style="opacity:0.004" fill="#000000" d="M 447.5,166.5 C 448.833,167.167 448.833,167.167 447.5,166.5 Z"/></g>
<g><path style="opacity:0.004" fill="#000000" d="M 86.5,168.5 C 85.8333,167.167 85.8333,167.167 86.5,168.5 Z"/></g>
<g><path style="opacity:0.004" fill="#000000" d="M 445.5,167.5 C 446.833,168.167 446.833,168.167 445.5,167.5 Z"/></g>
<g><path style="opacity:0.004" fill="#000000" d="M 86.5,168.5 C 87.7733,169.077 87.7733,169.743 86.5,170.5C 85.537,170.03 85.537,169.363 86.5,168.5 Z"/></g>
<g><path style="opacity:0.004" fill="#000000" d="M 449.5,168.5 C 450.833,169.167 450.833,169.167 449.5,168.5 Z"/></g>
<g><path style="opacity:0.004" fill="#151509" d="M 82.5,168.5 C 82.7373,169.791 82.404,170.791 81.5,171.5C 81.1583,170.662 80.4916,170.328 79.5,170.5C 80.2905,169.599 81.2905,168.932 82.5,168.5 Z"/></g>
<g><path style="opacity:0.008" fill="#000000" d="M 444.5,169.5 C 445.833,170.167 445.833,170.167 444.5,169.5 Z"/></g>
<g><path style="opacity:0.004" fill="#000000" d="M 446.5,169.5 C 447.833,170.167 447.833,170.167 446.5,169.5 Z"/></g>
<g><path style="opacity:0.004" fill="#000000" d="M 450.5,170.5 C 451.525,170.897 451.692,171.563 451,172.5C 450.536,171.906 450.369,171.239 450.5,170.5 Z"/></g>
<g><path style="opacity:0.004" fill="#000000" d="M 453.5,170.5 C 454.833,171.167 454.833,171.167 453.5,170.5 Z"/></g>
<g><path style="opacity:0.004" fill="#000000" d="M 79.5,171.5 C 80.1667,171.5 80.8333,171.5 81.5,171.5C 80.4523,173.933 79.7856,173.933 79.5,171.5 Z"/></g>
<g><path style="opacity:0.004" fill="#000000" d="M 84.5,171.5 C 85.8333,172.167 85.8333,172.167 84.5,171.5 Z"/></g>
<g><path style="opacity:0.004" fill="#000000" d="M 86.5,172.5 C 87.8333,173.167 87.8333,173.167 86.5,172.5 Z"/></g>
<g><path style="opacity:0.004" fill="#000000" d="M 445.5,172.5 C 446.833,173.167 446.833,173.167 445.5,172.5 Z"/></g>
<g><path style="opacity:0.004" fill="#000000" d="M 76.5,173.5 C 77.525,173.897 77.6917,174.563 77,175.5C 76.5357,174.906 76.369,174.239 76.5,173.5 Z"/></g>
<g><path style="opacity:0.004" fill="#000000" d="M 81.5,175.5 C 80.8333,174.167 80.8333,174.167 81.5,175.5 Z"/></g>
<g><path style="opacity:0.004" fill="#000000" d="M 448.5,174.5 C 449.833,175.167 449.833,175.167 448.5,174.5 Z"/></g>
<g><path style="opacity:0.004" fill="#000000" d="M 74.5,175.5 C 75.8333,176.167 75.8333,176.167 74.5,175.5 Z"/></g>
<g><path style="opacity:0.004" fill="#000000" d="M 81.5,175.5 C 82.8333,176.167 82.8333,176.167 81.5,175.5 Z"/></g>
<g><path style="opacity:0.004" fill="#000000" d="M 83.5,177.5 C 84.0768,176.227 84.7435,176.227 85.5,177.5C 85.0302,178.463 84.3635,178.463 83.5,177.5 Z"/></g>
<g><path style="opacity:0.004" fill="#000000" d="M 86.5,176.5 C 87.8333,177.167 87.8333,177.167 86.5,176.5 Z"/></g>
<g><path style="opacity:0.004" fill="#000000" d="M 74.5,177.5 C 75.8333,178.167 75.8333,178.167 74.5,177.5 Z"/></g>
<g><path style="opacity:0.004" fill="#000000" d="M 78.5,177.5 C 79.8333,178.167 79.8333,178.167 78.5,177.5 Z"/></g>
<g><path style="opacity:0.004" fill="#000000" d="M 447.5,177.5 C 448.833,178.167 448.833,178.167 447.5,177.5 Z"/></g>
<g><path style="opacity:0.004" fill="#000000" d="M 374.5,178.5 C 375.833,179.167 375.833,179.167 374.5,178.5 Z"/></g>
<g><path style="opacity:0.004" fill="#000000" d="M 452.5,178.5 C 453.833,179.167 453.833,179.167 452.5,178.5 Z"/></g>
<g><path style="opacity:0.004" fill="#000000" d="M 75.5,179.5 C 76.8333,180.167 76.8333,180.167 75.5,179.5 Z"/></g>
<g><path style="opacity:0.004" fill="#000000" d="M 79.5,180.5 C 78.8333,179.167 78.8333,179.167 79.5,180.5 Z"/></g>
<g><path style="opacity:0.004" fill="#000000" d="M 80.5,180.5 C 81.1667,179.167 81.8333,179.167 82.5,180.5C 81.8333,180.5 81.1667,180.5 80.5,180.5 Z"/></g>
<g><path style="opacity:0.004" fill="#000000" d="M 86.5,179.5 C 87.8333,180.167 87.8333,180.167 86.5,179.5 Z"/></g>
<g><path style="opacity:0.004" fill="#000000" d="M 70.5,180.5 C 71.8333,181.167 71.8333,181.167 70.5,180.5 Z"/></g>
<g><path style="opacity:0.004" fill="#000000" d="M 79.5,180.5 C 79.8333,180.5 80.1667,180.5 80.5,180.5C 80.3147,181.17 79.9813,181.17 79.5,180.5 Z"/></g>
<g><path style="opacity:0.004" fill="#000000" d="M 82.5,180.5 C 83.8333,181.167 83.8333,181.167 82.5,180.5 Z"/></g>
<g><path style="opacity:0.004" fill="#000000" d="M 445.5,180.5 C 446.833,181.167 446.833,181.167 445.5,180.5 Z"/></g>
<g><path style="opacity:0.004" fill="#000000" d="M 452.5,181.5 C 453.833,182.167 453.833,182.167 452.5,181.5 Z"/></g>
<g><path style="opacity:0.004" fill="#000000" d="M 73.5,182.5 C 74.8333,183.167 74.8333,183.167 73.5,182.5 Z"/></g>
<g><path style="opacity:0.004" fill="#000000" d="M 80.5,184.5 C 77.9991,184.489 77.8324,183.822 80,182.5C 80.4643,183.094 80.631,183.761 80.5,184.5 Z"/></g>
<g><path style="opacity:0.004" fill="#000000" d="M 170.5,182.5 C 171.833,183.167 171.833,183.167 170.5,182.5 Z"/></g>
<g><path style="opacity:0.004" fill="#000000" d="M 446.5,182.5 C 447.833,183.167 447.833,183.167 446.5,182.5 Z"/></g>
<g><path style="opacity:0.029" fill="#010100" d="M 64.5,182.5 C 65.209,183.404 66.209,183.737 67.5,183.5C 67.1927,186.899 66.1927,190.066 64.5,193C 65.056,193.383 65.3893,193.883 65.5,194.5C 64.448,194.351 63.448,194.517 62.5,195C 63.5,196 64.5,197 65.5,198C 64.5,198.333 63.5,198.667 62.5,199C 64.0581,199.21 65.3915,199.71 66.5,200.5C 67.2891,200.783 67.9558,201.283 68.5,202C 66.9991,203.252 65.3325,204.252 63.5,205C 63.1717,209.153 63.1717,212.987 63.5,216.5C 62.6618,216.842 62.3284,217.508 62.5,218.5C 61.1667,218.833 61.1667,219.167 62.5,219.5C 63.5981,220.397 63.5981,221.23 62.5,222C 63.0944,222.464 63.7611,222.631 64.5,222.5C 64.1667,223.833 63.8333,225.167 63.5,226.5C 62.8333,226.5 62.5,226.833 62.5,227.5C 61.6618,227.842 61.3284,228.508 61.5,229.5C 48.8333,229.5 36.1667,229.5 23.5,229.5C 23.4226,228.25 22.756,227.417 21.5,227C 23.25,225.246 23.9167,223.079 23.5,220.5C 24.7887,221.501 26.1221,221.334 27.5,220C 26.5,219.667 25.5,219.333 24.5,219C 25.2871,217.687 24.9538,216.52 23.5,215.5C 23.8333,214.5 24.5,213.833 25.5,213.5C 25.3505,214.552 25.5172,215.552 26,216.5C 26.7914,215.255 27.2914,213.922 27.5,212.5C 38.5799,202.457 50.2465,193.123 62.5,184.5C 63.1667,184.5 63.5,184.167 63.5,183.5C 63.5,182.833 63.8333,182.5 64.5,182.5 Z M 66.5,200.5 C 66.3036,202.646 65.3036,202.812 63.5,201C 64.448,200.517 65.448,200.351 66.5,200.5 Z"/></g>
<g><path style="opacity:0.004" fill="#000000" d="M 70.5,185.5 C 69.7109,185.217 69.0442,184.717 68.5,184C 69.816,183.472 70.4827,183.972 70.5,185.5 Z"/></g>
<g><path style="opacity:0.004" fill="#000000" d="M 73.5,183.5 C 73.1034,184.525 72.4368,184.692 71.5,184C 72.0944,183.536 72.7611,183.369 73.5,183.5 Z"/></g>
<g><path style="opacity:0.004" fill="#000000" d="M 71.5,188.5 C 72.1667,188.5 72.5,188.167 72.5,187.5C 74.0481,187.179 74.7148,186.179 74.5,184.5C 76.1033,184.312 77.4366,184.812 78.5,186C 76.4049,188.423 74.0716,189.256 71.5,188.5 Z"/></g>
<g><path style="opacity:0.004" fill="#000000" d="M 80.5,184.5 C 81.8333,185.167 81.8333,185.167 80.5,184.5 Z"/></g>
<g><path style="opacity:0.004" fill="#000000" d="M 70.5,185.5 C 71.1667,185.833 71.8333,186.167 72.5,186.5C 72.5,186.833 72.5,187.167 72.5,187.5C 71.8333,187.5 71.5,187.833 71.5,188.5C 70.596,187.791 70.2627,186.791 70.5,185.5 Z"/></g>
<g><path style="opacity:0.004" fill="#000000" d="M 72.5,185.5 C 73.8333,186.167 73.8333,186.167 72.5,185.5 Z"/></g>
<g><path style="opacity:0.004" fill="#000000" d="M 86.5,185.5 C 87.525,185.897 87.6917,186.563 87,187.5C 86.5357,186.906 86.369,186.239 86.5,185.5 Z"/></g>
<g><path style="opacity:0.004" fill="#000000" d="M 365.5,185.5 C 366.833,186.167 366.833,186.167 365.5,185.5 Z"/></g>
<g><path style="opacity:0.004" fill="#000000" d="M 448.5,185.5 C 449.833,186.167 449.833,186.167 448.5,185.5 Z"/></g>
<g><path style="opacity:0.004" fill="#000000" d="M 68.5,186.5 C 69.8333,187.167 69.8333,187.167 68.5,186.5 Z"/></g>
<g><path style="opacity:0.004" fill="#000000" d="M 80.5,186.5 C 81.8333,187.167 81.8333,187.167 80.5,186.5 Z"/></g>
<g><path style="opacity:0.004" fill="#000000" d="M 67.5,188.5 C 68.2891,188.783 68.9558,189.283 69.5,190C 68.184,190.528 67.5173,190.028 67.5,188.5 Z"/></g>
<g><path style="opacity:0.004" fill="#000000" d="M 77.5,188.5 C 78.5735,189.251 78.7401,190.251 78,191.5C 77.5172,190.552 77.3505,189.552 77.5,188.5 Z"/></g>
<g><path style="opacity:0.004" fill="#000000" d="M 84.5,189.5 C 83.8333,188.167 83.8333,188.167 84.5,189.5 Z"/></g>
<g><path style="opacity:0.004" fill="#000000" d="M 84.5,189.5 C 85.8333,190.167 85.8333,190.167 84.5,189.5 Z"/></g>
<g><path style="opacity:0.004" fill="#000000" d="M 0.5,190.5 C 1.83333,191.167 1.83333,191.167 0.5,190.5 Z"/></g>
<g><path style="opacity:0.004" fill="#000000" d="M 71.5,191.5 C 71.8966,190.475 72.5632,190.308 73.5,191C 72.9056,191.464 72.2389,191.631 71.5,191.5 Z"/></g>
<g><path style="opacity:0.004" fill="#000000" d="M 75.5,191.5 C 74.8333,190.167 74.8333,190.167 75.5,191.5 Z"/></g>
<g><path style="opacity:0.004" fill="#000000" d="M 79.5,190.5 C 80.8333,191.167 80.8333,191.167 79.5,190.5 Z"/></g>
<g><path style="opacity:0.004" fill="#000000" d="M 175.5,190.5 C 176.833,191.167 176.833,191.167 175.5,190.5 Z"/></g>
<g><path style="opacity:0.004" fill="#000000" d="M 66.5,191.5 C 67.8333,192.167 67.8333,192.167 66.5,191.5 Z"/></g>
<g><path style="opacity:0.004" fill="#000000" d="M 75.5,191.5 C 76.1667,191.5 76.5,191.833 76.5,192.5C 76.1667,192.167 75.8333,191.833 75.5,191.5 Z"/></g>
<g><path style="opacity:0.004" fill="#010100" d="M 291.5,190.5 C 291.918,191.222 292.584,191.722 293.5,192C 292.251,192.74 291.251,192.573 290.5,191.5C 290.5,190.833 290.833,190.5 291.5,190.5 Z"/></g>
<g><path style="opacity:0.004" fill="#000000" d="M 69.5,192.5 C 70.8333,193.167 70.8333,193.167 69.5,192.5 Z"/></g>
<g><path style="opacity:0.004" fill="#000000" d="M 75.5,192.5 C 74.8333,193.167 74.8333,193.167 75.5,192.5 Z"/></g>
<g><path style="opacity:0.004" fill="#000000" d="M 76.5,192.5 C 77.8333,193.167 77.8333,193.167 76.5,192.5 Z"/></g>
<g><path style="opacity:0.004" fill="#000000" d="M 356.5,192.5 C 357.833,193.167 357.833,193.167 356.5,192.5 Z"/></g>
<g><path style="opacity:0.004" fill="#000000" d="M 362.5,192.5 C 363.833,193.167 363.833,193.167 362.5,192.5 Z"/></g>
<g><path style="opacity:0.004" fill="#000000" d="M 453.5,192.5 C 454.833,193.167 454.833,193.167 453.5,192.5 Z"/></g>
<g><path style="opacity:0.004" fill="#000000" d="M 80.5,193.5 C 81.8333,194.167 81.8333,194.167 80.5,193.5 Z"/></g>
<g><path style="opacity:0.004" fill="#000000" d="M 459.5,193.5 C 460.833,194.167 460.833,194.167 459.5,193.5 Z"/></g>
<g><path style="opacity:0.004" fill="#000000" d="M 2.5,194.5 C 3.83333,195.167 3.83333,195.167 2.5,194.5 Z"/></g>
<g><path style="opacity:0.004" fill="#000000" d="M 65.5,194.5 C 66.8333,195.167 66.8333,195.167 65.5,194.5 Z"/></g>
<g><path style="opacity:0.004" fill="#000000" d="M 85.5,194.5 C 86.8333,195.167 86.8333,195.167 85.5,194.5 Z"/></g>
<g><path style="opacity:0.004" fill="#0d0d03" d="M 287.5,193.5 C 288.562,194.575 288.562,195.575 287.5,196.5C 286.702,196.043 286.369,195.376 286.5,194.5C 286.5,193.833 286.833,193.5 287.5,193.5 Z"/></g>
<g><path style="opacity:0.004" fill="#000000" d="M 292.5,195.5 C 292.897,194.475 293.563,194.308 294.5,195C 293.906,195.464 293.239,195.631 292.5,195.5 Z"/></g>
<g><path style="opacity:0.004" fill="#000000" d="M 453.5,194.5 C 454.833,195.167 454.833,195.167 453.5,194.5 Z"/></g>
<g><path style="opacity:0.004" fill="#000000" d="M 70.5,195.5 C 71.8333,196.167 71.8333,196.167 70.5,195.5 Z"/></g>
<g><path style="opacity:0.004" fill="#000000" d="M 290.5,195.5 C 291.833,196.167 291.833,196.167 290.5,195.5 Z"/></g>
<g><path style="opacity:0.004" fill="#000000" d="M 354.5,195.5 C 355.833,196.167 355.833,196.167 354.5,195.5 Z"/></g>
<g><path style="opacity:0.004" fill="#000000" d="M 357.5,195.5 C 358.833,196.167 358.833,196.167 357.5,195.5 Z"/></g>
<g><path style="opacity:0.004" fill="#000000" d="M 445.5,197.5 C 445.783,196.711 446.283,196.044 447,195.5C 447.528,196.816 447.028,197.483 445.5,197.5 Z"/></g>
<g><path style="opacity:0.004" fill="#000000" d="M 70.5,196.5 C 69.8333,197.167 69.8333,197.167 70.5,196.5 Z"/></g>
<g><path style="opacity:0.004" fill="#000000" d="M 76.5,196.5 C 77.8333,197.167 77.8333,197.167 76.5,196.5 Z"/></g>
<g><path style="opacity:0.004" fill="#000000" d="M 80.5,196.5 C 81.8333,197.167 81.8333,197.167 80.5,196.5 Z"/></g>
<g><path style="opacity:0.004" fill="#000000" d="M 284.5,197.5 C 285.833,198.167 285.833,198.167 284.5,197.5 Z"/></g>
<g><path style="opacity:0.004" fill="#000000" d="M 289.5,198.5 C 289.897,197.475 290.563,197.308 291.5,198C 290.906,198.464 290.239,198.631 289.5,198.5 Z"/></g>
<g><path style="opacity:0.004" fill="#000000" d="M 351.5,197.5 C 352.833,198.167 352.833,198.167 351.5,197.5 Z"/></g>
<g><path style="opacity:0.004" fill="#000000" d="M 366.5,197.5 C 367.833,198.167 367.833,198.167 366.5,197.5 Z"/></g>
<g><path style="opacity:0.004" fill="#000000" d="M 368.5,197.5 C 369.833,198.167 369.833,198.167 368.5,197.5 Z"/></g>
<g><path style="opacity:0.004" fill="#000000" d="M 456.5,198.5 C 456.897,197.475 457.563,197.308 458.5,198C 457.906,198.464 457.239,198.631 456.5,198.5 Z"/></g>
<g><path style="opacity:0.004" fill="#292b12" d="M 282.5,197.5 C 282.5,198.833 281.833,199.5 280.5,199.5C 280.833,198.5 281.5,197.833 282.5,197.5 Z"/></g>
<g><path style="opacity:0.004" fill="#000000" d="M 289.5,198.5 C 288.833,199.167 288.833,199.167 289.5,198.5 Z"/></g>
<g><path style="opacity:0.004" fill="#000000" d="M 366.5,198.5 C 365.833,199.167 365.833,199.167 366.5,198.5 Z"/></g>
<g><path style="opacity:0.004" fill="#000000" d="M 376.5,198.5 C 377.833,199.167 377.833,199.167 376.5,198.5 Z"/></g>
<g><path style="opacity:0.004" fill="#000000" d="M 450.5,198.5 C 451.833,199.167 451.833,199.167 450.5,198.5 Z"/></g>
<g><path style="opacity:0.004" fill="#000000" d="M 84.5,199.5 C 85.8333,200.167 85.8333,200.167 84.5,199.5 Z"/></g>
<g><path style="opacity:0.004" fill="#000000" d="M 284.5,199.5 C 285.773,200.077 285.773,200.743 284.5,201.5C 283.537,201.03 283.537,200.363 284.5,199.5 Z"/></g>
<g><path style="opacity:0.004" fill="#000000" d="M 288.5,199.5 C 288.103,200.525 287.437,200.692 286.5,200C 287.094,199.536 287.761,199.369 288.5,199.5 Z"/></g>
<g><path style="opacity:0.005" fill="#000000" d="M 290.5,202.5 C 290.232,198.815 290.898,198.815 292.5,202.5C 292.03,203.463 291.363,203.463 290.5,202.5 Z"/></g>
<g><path style="opacity:0.004" fill="#000000" d="M 348.5,199.5 C 349.833,200.167 349.833,200.167 348.5,199.5 Z"/></g>
<g><path style="opacity:0.004" fill="#000000" d="M 357.5,199.5 C 358.833,200.167 358.833,200.167 357.5,199.5 Z"/></g>
<g><path style="opacity:0.004" fill="#000000" d="M 78.5,200.5 C 79.8333,201.167 79.8333,201.167 78.5,200.5 Z"/></g>
<g><path style="opacity:0.004" fill="#000000" d="M 71.5,201.5 C 72.8333,202.167 72.8333,202.167 71.5,201.5 Z"/></g>
<g><path style="opacity:0.004" fill="#000000" d="M 82.5,202.5 C 83.8333,203.167 83.8333,203.167 82.5,202.5 Z"/></g>
<g><path style="opacity:0.004" fill="#000000" d="M 282.5,202.5 C 283.833,203.167 283.833,203.167 282.5,202.5 Z"/></g>
<g><path style="opacity:0.004" fill="#040401" d="M 290.5,202.5 C 291.171,203.847 291.171,205.014 290.5,206C 291.818,207.63 293.151,207.797 294.5,206.5C 294.833,206.5 295.167,206.5 295.5,206.5C 295.263,207.791 295.596,208.791 296.5,209.5C 296.5,210.167 296.167,210.5 295.5,210.5C 295.167,210.5 294.833,210.5 294.5,210.5C 294.417,208.43 293.417,208.097 291.5,209.5C 290.261,209.058 289.261,208.391 288.5,207.5C 288.796,205.597 289.463,203.93 290.5,202.5 Z"/></g>
<g><path style="opacity:0.004" fill="#000000" d="M 68.5,203.5 C 69.8333,204.167 69.8333,204.167 68.5,203.5 Z"/></g>
<g><path style="opacity:0.004" fill="#000000" d="M 78.5,203.5 C 79.8333,204.167 79.8333,204.167 78.5,203.5 Z"/></g>
<g><path style="opacity:0.004" fill="#000000" d="M 276.5,203.5 C 277.833,204.167 277.833,204.167 276.5,203.5 Z"/></g>
<g><path style="opacity:0.004" fill="#000000" d="M 284.5,203.5 C 285.833,204.167 285.833,204.167 284.5,203.5 Z"/></g>
<g><path style="opacity:0.005" fill="#000000" d="M 294.5,203.5 C 294.5,204.5 294.5,205.5 294.5,206.5C 292.015,205.74 292.015,204.74 294.5,203.5 Z"/></g>
<g><path style="opacity:0.004" fill="#000000" d="M 372.5,203.5 C 373.833,204.167 373.833,204.167 372.5,203.5 Z"/></g>
<g><path style="opacity:0.004" fill="#000000" d="M 70.5,204.5 C 71.8333,205.167 71.8333,205.167 70.5,204.5 Z"/></g>
<g><path style="opacity:0.004" fill="#000000" d="M 65.5,205.5 C 66.8333,206.167 66.8333,206.167 65.5,205.5 Z"/></g>
<g><path style="opacity:0.004" fill="#000000" d="M 68.5,207.5 C 68.1667,207.5 67.8333,207.5 67.5,207.5C 67.8333,204.833 68.1667,204.833 68.5,207.5 Z"/></g>
<g><path style="opacity:0.004" fill="#000000" d="M 168.5,205.5 C 169.833,206.167 169.833,206.167 168.5,205.5 Z"/></g>
<g><path style="opacity:0.004" fill="#000000" d="M 275.5,205.5 C 276.833,206.167 276.833,206.167 275.5,205.5 Z"/></g>
<g><path style="opacity:0.004" fill="#000000" d="M 370.5,205.5 C 371.833,206.167 371.833,206.167 370.5,205.5 Z"/></g>
<g><path style="opacity:0.004" fill="#000000" d="M 73.5,208.5 C 73.369,207.761 73.5357,207.094 74,206.5C 74.6917,207.437 74.525,208.103 73.5,208.5 Z"/></g>
<g><path style="opacity:0.004" fill="#000000" d="M 78.5,206.5 C 79.8333,207.167 79.8333,207.167 78.5,206.5 Z"/></g>
<g><path style="opacity:0.004" fill="#000000" d="M 287.5,207.5 C 286.833,206.167 286.833,206.167 287.5,207.5 Z"/></g>
<g><path style="opacity:0.004" fill="#000000" d="M 347.5,206.5 C 348.833,207.167 348.833,207.167 347.5,206.5 Z"/></g>
<g><path style="opacity:0.004" fill="#000000" d="M 67.5,207.5 C 66.8333,208.167 66.8333,208.167 67.5,207.5 Z"/></g>
<g><path style="opacity:0.004" fill="#000000" d="M 68.5,207.5 C 69.8333,208.167 69.8333,208.167 68.5,207.5 Z"/></g>
<g><path style="opacity:0.004" fill="#000000" d="M 72.5,208.5 C 71.7611,208.631 71.0944,208.464 70.5,208C 71.4368,207.308 72.1034,207.475 72.5,208.5 Z"/></g>
<g><path style="opacity:0.004" fill="#000000" d="M 272.5,207.5 C 273.833,208.167 273.833,208.167 272.5,207.5 Z"/></g>
<g><path style="opacity:0.004" fill="#000000" d="M 279.5,207.5 C 280.833,208.167 280.833,208.167 279.5,207.5 Z"/></g>
<g><path style="opacity:0.004" fill="#000000" d="M 287.5,207.5 C 287.833,207.5 288.167,207.5 288.5,207.5C 288.167,210.167 287.833,210.167 287.5,207.5 Z"/></g>
<g><path style="opacity:0.004" fill="#000000" d="M 442.5,207.5 C 443.833,208.167 443.833,208.167 442.5,207.5 Z"/></g>
<g><path style="opacity:0.004" fill="#000000" d="M 72.5,208.5 C 72.8333,208.5 73.1667,208.5 73.5,208.5C 73.3147,209.17 72.9813,209.17 72.5,208.5 Z"/></g>
<g><path style="opacity:0.004" fill="#000000" d="M 371.5,208.5 C 372.833,209.167 372.833,209.167 371.5,208.5 Z"/></g>
<g><path style="opacity:0.004" fill="#000000" d="M 457.5,208.5 C 458.833,209.167 458.833,209.167 457.5,208.5 Z"/></g>
<g><path style="opacity:0.004" fill="#000000" d="M 66.5,210.5 C 65.7611,210.631 65.0944,210.464 64.5,210C 65.4368,209.308 66.1034,209.475 66.5,210.5 Z"/></g>
<g><path style="opacity:0.004" fill="#000000" d="M 72.5,209.5 C 72.5,210.167 72.5,210.833 72.5,211.5C 71.2334,212.087 70.2334,212.087 69.5,211.5C 70.0047,210.081 71.0047,209.415 72.5,209.5 Z"/></g>
<g><path style="opacity:0.004" fill="#000000" d="M 80.5,209.5 C 81.8333,210.167 81.8333,210.167 80.5,209.5 Z"/></g>
<g><path style="opacity:0.004" fill="#000000" d="M 284.5,209.5 C 285.833,210.167 285.833,210.167 284.5,209.5 Z"/></g>
<g><path style="opacity:0.004" fill="#000000" d="M 450.5,209.5 C 451.833,210.167 451.833,210.167 450.5,209.5 Z"/></g>
<g><path style="opacity:0.004" fill="#000000" d="M 454.5,209.5 C 455.833,210.167 455.833,210.167 454.5,209.5 Z"/></g>
<g><path style="opacity:0.004" fill="#000000" d="M 66.5,210.5 C 67.8333,211.167 67.8333,211.167 66.5,210.5 Z"/></g>
<g><path style="opacity:0.004" fill="#000000" d="M 275.5,210.5 C 276.525,210.897 276.692,211.563 276,212.5C 275.536,211.906 275.369,211.239 275.5,210.5 Z"/></g>
<g><path style="opacity:0.004" fill="#000000" d="M 288.5,211.5 C 287.833,210.167 287.833,210.167 288.5,211.5 Z"/></g>
<g><path style="opacity:0.004" fill="#010100" d="M 294.5,210.5 C 294.5,211.167 294.833,211.5 295.5,211.5C 295.672,212.492 295.338,213.158 294.5,213.5C 293.833,213.5 293.5,213.833 293.5,214.5C 291.451,214.706 291.117,215.539 292.5,217C 291.552,217.483 290.552,217.649 289.5,217.5C 289.539,216.417 289.873,215.417 290.5,214.5C 289.807,213.482 289.141,212.482 288.5,211.5C 290.621,211.675 292.621,211.341 294.5,210.5 Z"/></g>
<g><path style="opacity:0.004" fill="#000000" d="M 441.5,210.5 C 442.833,211.167 442.833,211.167 441.5,210.5 Z"/></g>
<g><path style="opacity:0.004" fill="#000000" d="M 456.5,210.5 C 457.833,211.167 457.833,211.167 456.5,210.5 Z"/></g>
<g><path style="opacity:0.004" fill="#000000" d="M 72.5,211.5 C 73.2389,211.369 73.9056,211.536 74.5,212C 73.5632,212.692 72.8966,212.525 72.5,211.5 Z"/></g>
<g><path style="opacity:0.004" fill="#000000" d="M 271.5,211.5 C 272.833,212.167 272.833,212.167 271.5,211.5 Z"/></g>
<g><path style="opacity:0.004" fill="#000000" d="M 277.5,211.5 C 278.833,212.167 278.833,212.167 277.5,211.5 Z"/></g>
<g><path style="opacity:0.004" fill="#000000" d="M 285.5,211.5 C 286.833,212.167 286.833,212.167 285.5,211.5 Z"/></g>
<g><path style="opacity:0.004" fill="#000000" d="M 333.5,211.5 C 334.833,212.167 334.833,212.167 333.5,211.5 Z"/></g>
<g><path style="opacity:0.004" fill="#000000" d="M 371.5,212.5 C 370.833,211.167 370.833,211.167 371.5,212.5 Z"/></g>
<g><path style="opacity:0.004" fill="#000000" d="M 65.5,213.5 C 64.8333,212.167 64.8333,212.167 65.5,213.5 Z"/></g>
<g><path style="opacity:0.004" fill="#000000" d="M 280.5,213.5 C 280.897,212.475 281.563,212.308 282.5,213C 281.906,213.464 281.239,213.631 280.5,213.5 Z"/></g>
<g><path style="opacity:0.004" fill="#000000" d="M 283.5,212.5 C 284.833,213.167 284.833,213.167 283.5,212.5 Z"/></g>
<g><path style="opacity:0.004" fill="#000000" d="M 343.5,212.5 C 344.833,213.167 344.833,213.167 343.5,212.5 Z"/></g>
<g><path style="opacity:0.004" fill="#000000" d="M 371.5,212.5 C 372.833,213.167 372.833,213.167 371.5,212.5 Z"/></g>
<g><path style="opacity:0.004" fill="#21220f" d="M 433.5,211.5 C 433.5,212.833 432.833,213.5 431.5,213.5C 431.833,212.5 432.5,211.833 433.5,211.5 Z"/></g>
<g><path style="opacity:0.004" fill="#000000" d="M 440.5,213.5 C 439.833,212.167 439.833,212.167 440.5,213.5 Z"/></g>
<g><path style="opacity:0.004" fill="#000000" d="M 442.5,212.5 C 443.833,213.167 443.833,213.167 442.5,212.5 Z"/></g>
<g><path style="opacity:0.004" fill="#000000" d="M 448.5,212.5 C 449.833,213.167 449.833,213.167 448.5,212.5 Z"/></g>
<g><path style="opacity:0.004" fill="#000000" d="M 451.5,213.5 C 451.897,212.475 452.563,212.308 453.5,213C 452.906,213.464 452.239,213.631 451.5,213.5 Z"/></g>
<g><path style="opacity:0.004" fill="#000000" d="M 457.5,212.5 C 458.833,213.167 458.833,213.167 457.5,212.5 Z"/></g>
<g><path style="opacity:0.004" fill="#000000" d="M -0.5,213.5 C 0.833333,214.167 0.833333,214.167 -0.5,213.5 Z"/></g>
<g><path style="opacity:0.004" fill="#000000" d="M 65.5,213.5 C 66.8333,214.167 66.8333,214.167 65.5,213.5 Z"/></g>
<g><path style="opacity:0.004" fill="#000000" d="M 68.5,213.5 C 69.8333,214.167 69.8333,214.167 68.5,213.5 Z"/></g>
<g><path style="opacity:0.004" fill="#000000" d="M 80.5,213.5 C 81.8333,214.167 81.8333,214.167 80.5,213.5 Z"/></g>
<g><path style="opacity:0.004" fill="#000000" d="M 270.5,214.5 C 269.833,213.167 269.833,213.167 270.5,214.5 Z"/></g>
<g><path style="opacity:0.004" fill="#000000" d="M 286.5,213.5 C 287.833,214.167 287.833,214.167 286.5,213.5 Z"/></g>
<g><path style="opacity:0.004" fill="#000000" d="M 341.5,213.5 C 342.525,213.897 342.692,214.563 342,215.5C 341.536,214.906 341.369,214.239 341.5,213.5 Z"/></g>
<g><path style="opacity:0.004" fill="#000000" d="M 365.5,213.5 C 366.833,214.167 366.833,214.167 365.5,213.5 Z"/></g>
<g><path style="opacity:0.004" fill="#000000" d="M 440.5,213.5 C 441.525,213.897 441.692,214.563 441,215.5C 440.536,214.906 440.369,214.239 440.5,213.5 Z"/></g>
<g><path style="opacity:0.004" fill="#000000" d="M 270.5,214.5 C 271.833,215.167 271.833,215.167 270.5,214.5 Z"/></g>
<g><path style="opacity:0.004" fill="#000000" d="M 280.5,214.5 C 281.833,215.167 281.833,215.167 280.5,214.5 Z"/></g>
<g><path style="opacity:0.004" fill="#000000" d="M 349.5,214.5 C 350.833,215.167 350.833,215.167 349.5,214.5 Z"/></g>
<g><path style="opacity:0.004" fill="#000000" d="M 375.5,214.5 C 376.833,215.167 376.833,215.167 375.5,214.5 Z"/></g>
<g><path style="opacity:0.004" fill="#000000" d="M 450.5,214.5 C 451.833,215.167 451.833,215.167 450.5,214.5 Z"/></g>
<g><path style="opacity:0.004" fill="#000000" d="M 2.5,215.5 C 3.83333,216.167 3.83333,216.167 2.5,215.5 Z"/></g>
<g><path style="opacity:0.004" fill="#000000" d="M 129.5,215.5 C 128.833,216.167 128.833,216.167 129.5,215.5 Z"/></g>
<g><path style="opacity:0.004" fill="#000000" d="M 147.5,215.5 C 148.833,216.167 148.833,216.167 147.5,215.5 Z"/></g>
<g><path style="opacity:0.004" fill="#000000" d="M 283.5,215.5 C 284.833,216.167 284.833,216.167 283.5,215.5 Z"/></g>
<g><path style="opacity:0.004" fill="#000000" d="M 285.5,215.5 C 286.833,216.167 286.833,216.167 285.5,215.5 Z"/></g>
<g><path style="opacity:0.004" fill="#000000" d="M 289.5,217.5 C 291.291,219.836 293.291,219.836 295.5,217.5C 296.5,217.833 297.167,218.5 297.5,219.5C 298.167,219.5 298.5,219.833 298.5,220.5C 297.147,221.867 297.481,222.867 299.5,223.5C 300.107,223.376 300.44,223.043 300.5,222.5C 301.5,222.833 302.167,223.5 302.5,224.5C 301.167,224.5 300.5,225.167 300.5,226.5C 299.662,226.842 299.328,227.508 299.5,228.5C 298.508,228.328 297.842,228.662 297.5,229.5C 295.5,229.5 293.5,229.5 291.5,229.5C 293.031,228.075 292.698,227.409 290.5,227.5C 293.398,225.227 293.064,223.727 289.5,223C 289.833,222.667 290.167,222.333 290.5,222C 289.552,221.517 288.552,221.351 287.5,221.5C 287.338,219.473 287.505,217.473 288,215.5C 288.278,216.416 288.778,217.082 289.5,217.5 Z M 296.5,227.5 C 294.343,226.947 294.51,225.947 297,224.5C 297.47,225.577 297.303,226.577 296.5,227.5 Z"/></g>
<g><path style="opacity:0.004" fill="#000000" d="M 351.5,215.5 C 352.833,216.167 352.833,216.167 351.5,215.5 Z"/></g>
<g><path style="opacity:0.004" fill="#000000" d="M 355.5,215.5 C 356.833,216.167 356.833,216.167 355.5,215.5 Z"/></g>
<g><path style="opacity:0.004" fill="#000000" d="M 436.5,215.5 C 437.833,216.167 437.833,216.167 436.5,215.5 Z"/></g>
<g><path style="opacity:0.004" fill="#000000" d="M 446.5,215.5 C 447.833,216.167 447.833,216.167 446.5,215.5 Z"/></g>
<g><path style="opacity:0.004" fill="#000000" d="M 63.5,216.5 C 64.8333,217.167 64.8333,217.167 63.5,216.5 Z"/></g>
<g><path style="opacity:0.004" fill="#000000" d="M 271.5,216.5 C 272.833,217.167 272.833,217.167 271.5,216.5 Z"/></g>
<g><path style="opacity:0.004" fill="#000000" d="M 283.5,216.5 C 283.361,218.337 282.694,218.67 281.5,217.5C 281.957,216.702 282.624,216.369 283.5,216.5 Z"/></g>
<g><path style="opacity:0.004" fill="#000000" d="M 371.5,217.5 C 370.833,216.167 370.833,216.167 371.5,217.5 Z"/></g>
<g><path style="opacity:0.004" fill="#000000" d="M 446.5,216.5 C 445.833,217.167 445.833,217.167 446.5,216.5 Z"/></g>
<g><path style="opacity:0.004" fill="#000000" d="M 449.5,216.5 C 450.833,217.167 450.833,217.167 449.5,216.5 Z"/></g>
<g><path style="opacity:0.004" fill="#000000" d="M 461.5,216.5 C 462.833,217.167 462.833,217.167 461.5,216.5 Z"/></g>
<g><path style="opacity:0.004" fill="#000000" d="M 67.5,217.5 C 68.8333,218.167 68.8333,218.167 67.5,217.5 Z"/></g>
<g><path style="opacity:0.004" fill="#000000" d="M 371.5,217.5 C 372.167,217.5 372.5,217.833 372.5,218.5C 372.167,218.167 371.833,217.833 371.5,217.5 Z"/></g>
<g><path style="opacity:0.004" fill="#000000" d="M 377.5,217.5 C 378.833,218.167 378.833,218.167 377.5,217.5 Z"/></g>
<g><path style="opacity:0.004" fill="#000000" d="M 447.5,218.5 C 447.842,217.662 448.508,217.328 449.5,217.5C 449.158,218.338 448.492,218.672 447.5,218.5 Z"/></g>
<g><path style="opacity:0.004" fill="#000000" d="M 453.5,217.5 C 454.833,218.167 454.833,218.167 453.5,217.5 Z"/></g>
<g><path style="opacity:0.004" fill="#000000" d="M 458.5,217.5 C 459.833,218.167 459.833,218.167 458.5,217.5 Z"/></g>
<g><path style="opacity:0.004" fill="#000000" d="M 22.5,219.5 C 21.8333,218.167 21.8333,218.167 22.5,219.5 Z"/></g>
<g><path style="opacity:0.004" fill="#000000" d="M 62.5,219.5 C 62.5,219.167 62.5,218.833 62.5,218.5C 65.1667,218.833 65.1667,219.167 62.5,219.5 Z"/></g>
<g><path style="opacity:0.004" fill="#000000" d="M 74.5,219.5 C 74.8966,218.475 75.5632,218.308 76.5,219C 75.9056,219.464 75.2389,219.631 74.5,219.5 Z"/></g>
<g><path style="opacity:0.004" fill="#000000" d="M 268.5,218.5 C 269.525,218.897 269.692,219.563 269,220.5C 268.536,219.906 268.369,219.239 268.5,218.5 Z"/></g>
<g><path style="opacity:0.004" fill="#000000" d="M 271.5,218.5 C 272.833,219.167 272.833,219.167 271.5,218.5 Z"/></g>
<g><path style="opacity:0.004" fill="#000000" d="M 278.5,218.5 C 279.833,219.167 279.833,219.167 278.5,218.5 Z"/></g>
<g><path style="opacity:0.004" fill="#000000" d="M 284.5,219.5 C 284.897,218.475 285.563,218.308 286.5,219C 285.906,219.464 285.239,219.631 284.5,219.5 Z"/></g>
<g><path style="opacity:0.004" fill="#000000" d="M 328.5,218.5 C 329.833,219.167 329.833,219.167 328.5,218.5 Z"/></g>
<g><path style="opacity:0.004" fill="#000000" d="M 354.5,218.5 C 355.833,219.167 355.833,219.167 354.5,218.5 Z"/></g>
<g><path style="opacity:0.004" fill="#000000" d="M 362.5,218.5 C 363.833,219.167 363.833,219.167 362.5,218.5 Z"/></g>
<g><path style="opacity:0.004" fill="#000000" d="M 372.5,218.5 C 373.833,219.167 373.833,219.167 372.5,218.5 Z"/></g>
<g><path style="opacity:0.004" fill="#000000" d="M 447.5,218.5 C 446.833,219.167 446.833,219.167 447.5,218.5 Z"/></g>
<g><path style="opacity:0.006" fill="#000000" d="M 450.5,218.5 C 451.525,218.897 451.692,219.563 451,220.5C 450.536,219.906 450.369,219.239 450.5,218.5 Z"/></g>
<g><path style="opacity:0.004" fill="#000000" d="M 0.5,219.5 C 1.83333,220.167 1.83333,220.167 0.5,219.5 Z"/></g>
<g><path style="opacity:0.004" fill="#000000" d="M 22.5,219.5 C 23.1667,219.5 23.5,219.833 23.5,220.5C 23.1667,220.167 22.8333,219.833 22.5,219.5 Z"/></g>
<g><path style="opacity:0.004" fill="#242510" d="M 113.5,218.5 C 113.5,219.833 112.833,220.5 111.5,220.5C 111.833,219.5 112.5,218.833 113.5,218.5 Z"/></g>
<g><path style="opacity:0.004" fill="#000000" d="M 115.5,219.5 C 116.833,220.167 116.833,220.167 115.5,219.5 Z"/></g>
<g><path style="opacity:0.004" fill="#000000" d="M 144.5,219.5 C 145.833,220.167 145.833,220.167 144.5,219.5 Z"/></g>
<g><path style="opacity:0.004" fill="#000000" d="M 170.5,219.5 C 171.833,220.167 171.833,220.167 170.5,219.5 Z"/></g>
<g><path style="opacity:0.004" fill="#000000" d="M 319.5,219.5 C 320.833,220.167 320.833,220.167 319.5,219.5 Z"/></g>
<g><path style="opacity:0.004" fill="#000000" d="M 439.5,219.5 C 440.833,220.167 440.833,220.167 439.5,219.5 Z"/></g>
<g><path style="opacity:0.004" fill="#000000" d="M 455.5,219.5 C 456.833,220.167 456.833,220.167 455.5,219.5 Z"/></g>
<g><path style="opacity:0.004" fill="#000000" d="M 19.5,220.5 C 20.8333,221.167 20.8333,221.167 19.5,220.5 Z"/></g>
<g><path style="opacity:0.004" fill="#000000" d="M 64.5,222.5 C 65.0024,220.915 66.0024,220.415 67.5,221C 66.7562,222.039 65.7562,222.539 64.5,222.5 Z"/></g>
<g><path style="opacity:0.004" fill="#000000" d="M 256.5,220.5 C 257.833,221.167 257.833,221.167 256.5,220.5 Z"/></g>
<g><path style="opacity:0.004" fill="#000000" d="M 264.5,220.5 C 265.833,221.167 265.833,221.167 264.5,220.5 Z"/></g>
<g><path style="opacity:0.004" fill="#000000" d="M 272.5,220.5 C 273.833,221.167 273.833,221.167 272.5,220.5 Z"/></g>
<g><path style="opacity:0.004" fill="#000000" d="M 283.5,220.5 C 284.525,220.897 284.692,221.563 284,222.5C 283.536,221.906 283.369,221.239 283.5,220.5 Z"/></g>
<g><path style="opacity:0.004" fill="#000000" d="M 287.5,221.5 C 288.11,224.162 287.443,224.162 285.5,221.5C 285.97,220.537 286.637,220.537 287.5,221.5 Z"/></g>
<g><path style="opacity:0.004" fill="#000000" d="M 447.5,221.5 C 447.897,220.475 448.563,220.308 449.5,221C 448.906,221.464 448.239,221.631 447.5,221.5 Z"/></g>
<g><path style="opacity:0.004" fill="#000000" d="M 460.5,220.5 C 461.525,220.897 461.692,221.563 461,222.5C 460.536,221.906 460.369,221.239 460.5,220.5 Z"/></g>
<g><path style="opacity:0.004" fill="#000000" d="M 8.5,221.5 C 9.83333,222.167 9.83333,222.167 8.5,221.5 Z"/></g>
<g><path style="opacity:0.004" fill="#000000" d="M 21.5,221.5 C 22.8333,222.167 22.8333,222.167 21.5,221.5 Z"/></g>
<g><path style="opacity:0.004" fill="#000000" d="M 70.5,221.5 C 71.8333,222.167 71.8333,222.167 70.5,221.5 Z"/></g>
<g><path style="opacity:0.004" fill="#000000" d="M 133.5,221.5 C 134.833,222.167 134.833,222.167 133.5,221.5 Z"/></g>
<g><path style="opacity:0.004" fill="#000000" d="M 239.5,221.5 C 240.833,222.167 240.833,222.167 239.5,221.5 Z"/></g>
<g><path style="opacity:0.004" fill="#000000" d="M 267.5,221.5 C 268.525,221.897 268.692,222.563 268,223.5C 267.536,222.906 267.369,222.239 267.5,221.5 Z"/></g>
<g><path style="opacity:0.004" fill="#000000" d="M 278.5,221.5 C 279.833,222.167 279.833,222.167 278.5,221.5 Z"/></g>
<g><path style="opacity:0.004" fill="#000000" d="M 367.5,221.5 C 370.001,221.511 370.168,222.178 368,223.5C 367.536,222.906 367.369,222.239 367.5,221.5 Z"/></g>
<g><path style="opacity:0.004" fill="#000000" d="M 440.5,221.5 C 441.833,222.167 441.833,222.167 440.5,221.5 Z"/></g>
<g><path style="opacity:0.004" fill="#000000" d="M 442.5,221.5 C 443.833,222.167 443.833,222.167 442.5,221.5 Z"/></g>
<g><path style="opacity:0.004" fill="#000000" d="M 450.5,221.5 C 451.833,222.167 451.833,222.167 450.5,221.5 Z"/></g>
<g><path style="opacity:0.004" fill="#000000" d="M 457.5,222.5 C 456.833,221.167 456.833,221.167 457.5,222.5 Z"/></g>
<g><path style="opacity:0.004" fill="#000000" d="M 458.5,221.5 C 459.833,222.167 459.833,222.167 458.5,221.5 Z"/></g>
<g><path style="opacity:0.004" fill="#000000" d="M 8.5,222.5 C 7.83333,223.167 7.83333,223.167 8.5,222.5 Z"/></g>
<g><path style="opacity:0.004" fill="#000000" d="M 80.5,222.5 C 81.8333,223.167 81.8333,223.167 80.5,222.5 Z"/></g>
<g><path style="opacity:0.004" fill="#000000" d="M 110.5,222.5 C 111.833,223.167 111.833,223.167 110.5,222.5 Z"/></g>
<g><path style="opacity:0.004" fill="#000000" d="M 112.5,222.5 C 113.833,223.167 113.833,223.167 112.5,222.5 Z"/></g>
<g><path style="opacity:0.004" fill="#000000" d="M 117.5,223.5 C 117.897,222.475 118.563,222.308 119.5,223C 118.906,223.464 118.239,223.631 117.5,223.5 Z"/></g>
<g><path style="opacity:0.004" fill="#000000" d="M 122.5,222.5 C 123.833,223.167 123.833,223.167 122.5,222.5 Z"/></g>
<g><path style="opacity:0.004" fill="#000000" d="M 129.5,222.5 C 130.833,223.167 130.833,223.167 129.5,222.5 Z"/></g>
<g><path style="opacity:0.004" fill="#000000" d="M 141.5,222.5 C 142.833,223.167 142.833,223.167 141.5,222.5 Z"/></g>
<g><path style="opacity:0.004" fill="#000000" d="M 243.5,222.5 C 244.833,223.167 244.833,223.167 243.5,222.5 Z"/></g>
<g><path style="opacity:0.004" fill="#000000" d="M 263.5,222.5 C 264.833,223.167 264.833,223.167 263.5,222.5 Z"/></g>
<g><path style="opacity:0.004" fill="#000000" d="M 269.5,222.5 C 270.833,223.167 270.833,223.167 269.5,222.5 Z"/></g>
<g><path style="opacity:0.004" fill="#000000" d="M 272.5,222.5 C 273.833,223.167 273.833,223.167 272.5,222.5 Z"/></g>
<g><path style="opacity:0.004" fill="#000000" d="M 435.5,222.5 C 436.833,223.167 436.833,223.167 435.5,222.5 Z"/></g>
<g><path style="opacity:0.004" fill="#000000" d="M 445.5,222.5 C 446.525,222.897 446.692,223.563 446,224.5C 445.536,223.906 445.369,223.239 445.5,222.5 Z"/></g>
<g><path style="opacity:0.004" fill="#000000" d="M 448.5,222.5 C 449.833,223.167 449.833,223.167 448.5,222.5 Z"/></g>
<g><path style="opacity:0.004" fill="#000000" d="M 457.5,222.5 C 457.833,222.5 458.167,222.5 458.5,222.5C 458.315,223.17 457.981,223.17 457.5,222.5 Z"/></g>
<g><path style="opacity:0.004" fill="#000000" d="M 65.5,223.5 C 69.2434,223.459 69.4101,224.126 66,225.5C 65.5357,224.906 65.369,224.239 65.5,223.5 Z"/></g>
<g><path style="opacity:0.004" fill="#000000" d="M 74.5,223.5 C 75.525,223.897 75.6917,224.563 75,225.5C 74.5357,224.906 74.369,224.239 74.5,223.5 Z"/></g>
<g><path style="opacity:0.004" fill="#000000" d="M 117.5,223.5 C 117.5,223.833 117.5,224.167 117.5,224.5C 116.83,224.019 116.83,223.685 117.5,223.5 Z"/></g>
<g><path style="opacity:0.004" fill="#000000" d="M 175.5,223.5 C 176.833,224.167 176.833,224.167 175.5,223.5 Z"/></g>
<g><path style="opacity:0.004" fill="#000000" d="M 249.5,223.5 C 250.833,224.167 250.833,224.167 249.5,223.5 Z"/></g>
<g><path style="opacity:0.004" fill="#000000" d="M 365.5,223.5 C 366.525,223.897 366.692,224.563 366,225.5C 365.536,224.906 365.369,224.239 365.5,223.5 Z"/></g>
<g><path style="opacity:0.004" fill="#000000" d="M 373.5,223.5 C 374.833,224.167 374.833,224.167 373.5,223.5 Z"/></g>
<g><path style="opacity:0.004" fill="#000000" d="M 448.5,223.5 C 447.833,224.167 447.833,224.167 448.5,223.5 Z"/></g>
<g><path style="opacity:0.004" fill="#000000" d="M 452.5,223.5 C 453.833,224.167 453.833,224.167 452.5,223.5 Z"/></g>
<g><path style="opacity:0.004" fill="#000000" d="M 18.5,224.5 C 19.8333,225.167 19.8333,225.167 18.5,224.5 Z"/></g>
<g><path style="opacity:0.004" fill="#000000" d="M 21.5,224.5 C 22.8333,225.167 22.8333,225.167 21.5,224.5 Z"/></g>
<g><path style="opacity:0.004" fill="#000000" d="M 71.5,224.5 C 72.8333,225.167 72.8333,225.167 71.5,224.5 Z"/></g>
<g><path style="opacity:0.004" fill="#000000" d="M 111.5,224.5 C 112.833,225.167 112.833,225.167 111.5,224.5 Z"/></g>
<g><path style="opacity:0.004" fill="#000000" d="M 117.5,224.5 C 118.833,225.167 118.833,225.167 117.5,224.5 Z"/></g>
<g><path style="opacity:0.004" fill="#000000" d="M 138.5,224.5 C 139.833,225.167 139.833,225.167 138.5,224.5 Z"/></g>
<g><path style="opacity:0.004" fill="#000000" d="M 140.5,224.5 C 141.833,225.167 141.833,225.167 140.5,224.5 Z"/></g>
<g><path style="opacity:0.004" fill="#000000" d="M 314.5,224.5 C 315.833,225.167 315.833,225.167 314.5,224.5 Z"/></g>
<g><path style="opacity:0.004" fill="#000000" d="M 355.5,224.5 C 356.833,225.167 356.833,225.167 355.5,224.5 Z"/></g>
<g><path style="opacity:0.004" fill="#000000" d="M 432.5,224.5 C 433.833,225.167 433.833,225.167 432.5,224.5 Z"/></g>
<g><path style="opacity:0.004" fill="#000000" d="M 443.5,224.5 C 444.833,225.167 444.833,225.167 443.5,224.5 Z"/></g>
<g><path style="opacity:0.004" fill="#000000" d="M 455.5,224.5 C 456.833,225.167 456.833,225.167 455.5,224.5 Z"/></g>
<g><path style="opacity:0.004" fill="#000000" d="M 458.5,225.5 C 458.897,224.475 459.563,224.308 460.5,225C 459.906,225.464 459.239,225.631 458.5,225.5 Z"/></g>
<g><path style="opacity:0.004" fill="#000000" d="M 76.5,225.5 C 77.8333,226.167 77.8333,226.167 76.5,225.5 Z"/></g>
<g><path style="opacity:0.004" fill="#000000" d="M 114.5,225.5 C 115.833,226.167 115.833,226.167 114.5,225.5 Z"/></g>
<g><path style="opacity:0.004" fill="#000000" d="M 126.5,225.5 C 127.833,226.167 127.833,226.167 126.5,225.5 Z"/></g>
<g><path style="opacity:0.004" fill="#000000" d="M 134.5,225.5 C 135.833,226.167 135.833,226.167 134.5,225.5 Z"/></g>
<g><path style="opacity:0.004" fill="#000000" d="M 281.5,225.5 C 282.833,226.167 282.833,226.167 281.5,225.5 Z"/></g>
<g><path style="opacity:0.004" fill="#000000" d="M 290.5,227.5 C 290.5,228.167 290.5,228.833 290.5,229.5C 290.167,229.5 289.833,229.5 289.5,229.5C 289.167,228.167 288.833,228.167 288.5,229.5C 288.167,229.5 287.833,229.5 287.5,229.5C 287.179,227.952 286.179,227.285 284.5,227.5C 286.678,225.353 288.678,225.353 290.5,227.5 Z"/></g>
<g><path style="opacity:0.004" fill="#010100" d="M 303.5,225.5 C 304.167,225.5 304.5,225.833 304.5,226.5C 303.662,226.842 303.328,227.508 303.5,228.5C 302.29,228.068 301.29,227.401 300.5,226.5C 301.609,226.443 302.609,226.11 303.5,225.5 Z"/></g>
<g><path style="opacity:0.004" fill="#000000" d="M 373.5,225.5 C 374.833,226.167 374.833,226.167 373.5,225.5 Z"/></g>
<g><path style="opacity:0.004" fill="#000000" d="M 446.5,225.5 C 447.833,226.167 447.833,226.167 446.5,225.5 Z"/></g>
<g><path style="opacity:0.004" fill="#000000" d="M 453.5,226.5 C 452.448,226.649 451.448,226.483 450.5,226C 451.749,225.26 452.749,225.427 453.5,226.5 Z"/></g>
<g><path style="opacity:0.004" fill="#000000" d="M 63.5,226.5 C 64.8333,227.167 64.8333,227.167 63.5,226.5 Z"/></g>
<g><path style="opacity:0.004" fill="#000000" d="M 65.5,226.5 C 66.8333,227.167 66.8333,227.167 65.5,226.5 Z"/></g>
<g><path style="opacity:0.004" fill="#000000" d="M 67.5,226.5 C 68.8333,227.167 68.8333,227.167 67.5,226.5 Z"/></g>
<g><path style="opacity:0.004" fill="#000000" d="M 110.5,226.5 C 111.525,226.897 111.692,227.563 111,228.5C 110.536,227.906 110.369,227.239 110.5,226.5 Z"/></g>
<g><path style="opacity:0.004" fill="#000000" d="M 119.5,226.5 C 120.833,227.167 120.833,227.167 119.5,226.5 Z"/></g>
<g><path style="opacity:0.004" fill="#000000" d="M 130.5,226.5 C 131.833,227.167 131.833,227.167 130.5,226.5 Z"/></g>
<g><path style="opacity:0.004" fill="#000000" d="M 252.5,226.5 C 253.833,227.167 253.833,227.167 252.5,226.5 Z"/></g>
<g><path style="opacity:0.004" fill="#000000" d="M 448.5,226.5 C 449.833,227.167 449.833,227.167 448.5,226.5 Z"/></g>
<g><path style="opacity:0.004" fill="#000000" d="M 453.5,226.5 C 454.397,227.598 455.23,227.598 456,226.5C 456.47,227.577 456.303,228.577 455.5,229.5C 455.167,229.5 454.833,229.5 454.5,229.5C 453.89,228.609 453.557,227.609 453.5,226.5 Z"/></g>
<g><path style="opacity:0.004" fill="#000000" d="M 3.5,227.5 C 4.83333,228.167 4.83333,228.167 3.5,227.5 Z"/></g>
<g><path style="opacity:0.004" fill="#000000" d="M 19.5,227.5 C 20.8333,228.167 20.8333,228.167 19.5,227.5 Z"/></g>
<g><path style="opacity:0.004" fill="#000000" d="M 62.5,227.5 C 62.8333,227.5 63.1667,227.5 63.5,227.5C 63.3147,228.17 62.9813,228.17 62.5,227.5 Z"/></g>
<g><path style="opacity:0.004" fill="#000000" d="M 69.5,227.5 C 70.8333,228.167 70.8333,228.167 69.5,227.5 Z"/></g>
<g><path style="opacity:0.004" fill="#000000" d="M 137.5,227.5 C 138.833,228.167 138.833,228.167 137.5,227.5 Z"/></g>
<g><path style="opacity:0.004" fill="#000000" d="M 280.5,228.5 C 279.833,227.167 279.833,227.167 280.5,228.5 Z"/></g>
<g><path style="opacity:0.004" fill="#000000" d="M 284.5,227.5 C 284.5,227.833 284.5,228.167 284.5,228.5C 283.83,228.019 283.83,227.685 284.5,227.5 Z"/></g>
<g><path style="opacity:0.004" fill="#000000" d="M 314.5,227.5 C 315.833,228.167 315.833,228.167 314.5,227.5 Z"/></g>
<g><path style="opacity:0.004" fill="#000000" d="M 446.5,229.5 C 446.167,229.5 445.833,229.5 445.5,229.5C 445.833,226.833 446.167,226.833 446.5,229.5 Z"/></g>
<g><path style="opacity:0.004" fill="#000000" d="M 450.5,228.5 C 451.623,227.243 452.289,227.576 452.5,229.5C 452.167,229.5 451.833,229.5 451.5,229.5C 451.5,228.833 451.167,228.5 450.5,228.5 Z"/></g>
<g><path style="opacity:0.004" fill="#000000" d="M 67.5,229.5 C 66.8333,228.167 66.8333,228.167 67.5,229.5 Z"/></g>
<g><path style="opacity:0.004" fill="#000000" d="M 125.5,229.5 C 124.833,228.167 124.833,228.167 125.5,229.5 Z"/></g>
<g><path style="opacity:0.004" fill="#000000" d="M 130.5,229.5 C 129.833,228.167 129.833,228.167 130.5,229.5 Z"/></g>
<g><path style="opacity:0.004" fill="#000000" d="M 137.5,228.5 C 137.5,228.833 137.5,229.167 137.5,229.5C 136.83,229.019 136.83,228.685 137.5,228.5 Z"/></g>
<g><path style="opacity:0.004" fill="#000000" d="M 164.5,229.5 C 163.833,228.167 163.833,228.167 164.5,229.5 Z"/></g>
<g><path style="opacity:0.004" fill="#000000" d="M 244.5,229.5 C 243.833,228.167 243.833,228.167 244.5,229.5 Z"/></g>
<g><path style="opacity:0.004" fill="#000000" d="M 272.5,229.5 C 271.833,228.167 271.833,228.167 272.5,229.5 Z"/></g>
<g><path style="opacity:0.004" fill="#000000" d="M 280.5,228.5 C 281.167,228.5 281.5,228.833 281.5,229.5C 281.167,229.167 280.833,228.833 280.5,228.5 Z"/></g>
<g><path style="opacity:0.006" fill="#000000" d="M 284.5,229.5 C 284.5,229.167 284.5,228.833 284.5,228.5C 285.492,228.328 286.158,228.662 286.5,229.5C 285.833,229.5 285.167,229.5 284.5,229.5 Z"/></g>
<g><path style="opacity:0.008" fill="#000000" d="M 299.5,228.5 C 300.167,228.5 300.5,228.833 300.5,229.5C 300.167,229.167 299.833,228.833 299.5,228.5 Z"/></g>
<g><path style="opacity:0.004" fill="#000000" d="M 303.5,228.5 C 304.167,228.5 304.5,228.833 304.5,229.5C 304.167,229.167 303.833,228.833 303.5,228.5 Z"/></g>
<g><path style="opacity:0.004" fill="#000000" d="M 364.5,229.5 C 363.833,228.167 363.833,228.167 364.5,229.5 Z"/></g>
<g><path style="opacity:0.004" fill="#000000" d="M 366.5,229.5 C 367.167,228.167 367.833,228.167 368.5,229.5C 367.833,229.5 367.167,229.5 366.5,229.5 Z"/></g>
<g><path style="opacity:0.004" fill="#000000" d="M 448.5,229.5 C 448.842,228.662 449.508,228.328 450.5,228.5C 450.5,228.833 450.5,229.167 450.5,229.5C 449.833,229.5 449.167,229.5 448.5,229.5 Z"/></g>
<g><path style="opacity:0.004" fill="#000000" d="M 459.5,229.5 C 458.833,228.167 458.833,228.167 459.5,229.5 Z"/></g>
<g><path style="opacity:0.004" fill="#000000" d="M 461.5,229.5 C 460.833,228.167 460.833,228.167 461.5,229.5 Z"/></g>
<g><path style="opacity:0.004" fill="#000000" d="M 463.5,229.5 C 462.833,228.167 462.833,228.167 463.5,229.5 Z"/></g>
</svg>
